<svg viewBox="0 0 818 1281" fill="none" xmlns="http://www.w3.org/2000/svg">
  <g clip-path="url(#clip0_13_19210)">
    <path fill-rule="evenodd" clip-rule="evenodd" d="M468.801 122.706C513.573 122.706 567.29 144.411 571.858 144.845L571.981 144.851C574.384 144.851 583.773 152.005 600.149 166.311L582.412 200.905L583.847 202.276C590.716 208.861 596.58 214.863 601.208 219.595C639 258.229 645.792 409.919 636.886 462.818C627.98 515.717 611.484 567.48 534.685 567.48C457.887 567.48 372.447 521.303 359.285 506.922C350.511 497.336 340.655 492.743 329.718 493.144C329.268 492.577 328.822 492.011 328.38 491.447L326.771 491.219C311.633 489.027 300.787 486.076 294.233 482.368C281.429 475.124 267.357 437.045 267.357 428.657C267.357 420.352 246.344 359.94 245.924 353.547L245.918 353.37C245.918 348.025 218.467 323.458 218.467 315.656C218.467 307.854 212.934 308.327 218.467 280.833L220.074 272.756C225.963 243.484 237.487 195.013 281.429 173.95C329.718 150.805 423.577 122.706 468.801 122.706Z" fill="#EDB98A" />
    <path fill-rule="evenodd" clip-rule="evenodd" d="M341.67 362.313C341.67 362.313 321.502 371.864 301.334 387.456C281.166 403.047 291.124 403.562 291.124 403.562C291.124 403.562 290.256 436.975 296.471 450.229C302.686 463.483 339.495 465.829 339.495 465.829L345.73 486.706L344.868 496.381C340.07 494.224 335.017 493.243 329.71 493.438C329.26 492.87 328.815 492.305 328.372 491.741L326.763 491.513C311.626 489.321 300.78 486.37 294.225 482.662C281.422 475.418 267.35 437.339 267.35 428.951C267.35 424.286 260.719 403.179 254.833 384.44C250.24 369.82 246.101 356.643 245.917 353.841L245.91 353.664C245.91 351.243 240.281 344.881 234.121 337.919C226.677 329.507 218.459 320.219 218.459 315.95C218.459 313.673 217.988 312.101 217.458 310.333C216.172 306.042 214.541 300.598 218.459 281.127L220.067 273.05C225.955 243.778 237.48 195.306 281.422 174.244C329.71 151.099 423.57 123 468.794 123C504.061 123 544.879 136.468 562.852 142.398C567.696 143.996 570.88 145.047 571.85 145.139L571.973 145.145C574.376 145.145 583.765 152.298 600.141 166.605L595.981 174.72C541.899 176.299 452.964 181.124 414.143 195.857C356.419 217.764 341.67 362.313 341.67 362.313Z" fill="#57B4EA" />
    <path fill-rule="evenodd" clip-rule="evenodd" d="M273.976 172.863C298.059 147.301 434.78 107.763 503.952 116.144L506.027 116.413C511.547 117.113 516.987 118.173 522.356 119.613C539.71 123.666 557.636 129.803 571.975 140.054C583.946 148.44 621.709 162.135 610.579 184.073C614.706 191.892 616.246 201.552 613.457 209.253C613.106 211.913 612.286 214.363 611.237 216.903C620.054 229.914 627.035 244.628 632.686 258.623C642.561 293.844 648.706 330.498 649.606 366.433C652.6 434.705 645.114 516.256 585.652 560.404C549.731 588.379 493.463 589.319 453.096 554.633C450.805 551.922 440.032 544.606 443.627 543.323C444.697 544.453 445.797 545.553 446.917 546.633C446.866 546.513 446.856 546.393 446.877 546.263L445.823 545.309C443.84 543.474 441.27 540.812 444.197 541.333C444.326 541.483 444.467 541.613 444.606 541.763C445.226 542.135 445.694 542.457 446.059 542.741L446.246 542.892L446.188 542.831C444.502 541.033 443.491 539.2 446.012 540.371L446.346 540.533C447.467 541.713 448.606 542.843 449.766 543.943C449.747 543.813 449.766 543.683 449.837 543.543L448.755 542.498C447.7 541.464 447.861 541.459 448.377 540.623C446.133 537.478 450.322 539.346 450.616 540.573C453.237 539.953 455.538 544.873 457.226 545.473C531.225 602.363 638.612 551.884 636.873 393.359L636.846 390.257C636.338 339.568 632.072 287.469 611.106 241.583C609.067 237.163 606.786 232.863 604.277 228.703C602.547 225.583 600.697 222.543 598.707 219.583C593.136 219.133 587.636 218.113 582.217 216.533C580.356 216.063 578.516 215.543 576.677 214.933C549.797 216.399 523.516 217.994 496.561 219.506L488.141 220.03C465.307 221.498 441.692 223.85 423.266 237.973C405.186 250.831 405.104 276.186 389.627 290.303C367.557 305.282 367.396 318.789 363.146 340.863C363.461 357.503 374.999 381.68 353.826 388.683C357.398 393.776 352.419 391.329 352.027 389.543C351.987 389.553 351.947 389.563 351.917 389.563C355.1 395.48 350.421 391.754 350.007 389.853C349.757 389.783 349.507 389.603 349.257 389.353C352.464 394.537 347.28 390.907 347.587 389.963C341.39 380.438 328.636 378.959 319.646 381.483C319.536 381.823 319.137 381.853 318.887 381.673C280.66 389.957 290.523 469.093 329.697 461.443C331.374 461.101 331.334 461.906 331.667 461.983C330.762 459.607 333.313 460.574 333.286 461.073L333.441 461.065C333.564 461.055 333.514 461.041 333.606 461.073C332.731 456.214 337.655 463.254 337.266 463.543C337.417 463.453 337.587 463.403 337.737 463.383L337.567 462.922C336.75 460.745 336.82 461.65 336.826 460.403C336.212 458.862 336.167 459.536 336.311 458.532C338.469 456.86 339.106 461.932 339.826 462.303C338.592 460.583 339.573 459.178 340.737 460.112C349.56 478.67 360.957 496.107 375.686 509.843C377.297 511.113 378.927 512.363 380.616 513.543C386.881 519 396.491 522.509 402.356 527.343C402.356 527.423 402.317 527.523 402.257 527.623L402.391 527.744L402.527 527.873L404.567 528.853C405.167 529.363 405.707 529.933 406.186 530.563C406.697 531.153 407.146 531.803 407.527 532.493C407.717 533.333 407.297 533.683 406.497 533.323C406.146 533.203 405.797 533.063 405.447 532.933C405.467 532.963 405.476 532.983 405.497 533.003C405.612 533.177 406.388 534.977 405.493 534.684L405.387 534.643C404.896 534.463 404.407 534.263 403.927 534.073C404.497 534.783 405.016 535.553 405.476 536.203C405.967 536.713 406.266 537.313 406.387 537.993C406.366 538.373 406.157 538.533 405.777 538.483C405.197 538.293 404.627 538.093 404.056 537.883L404.218 538.193C404.622 538.986 405.195 540.317 404.177 539.873C403.306 539.603 402.467 539.293 401.627 538.953C401.556 539.093 401.417 539.143 401.137 539.013C398.467 538.063 395.887 536.903 393.417 535.533C391.247 533.953 389.056 532.403 386.877 530.833C384.826 529.603 382.846 528.233 380.957 526.693C368.311 518.525 357.24 508.149 348.457 496.593C333.768 509.314 304.399 497.161 286.232 487.203C270.163 478.303 263.847 461.847 262.214 444.105C258.819 420.219 239.299 412.043 240.657 359.633C240.627 359.643 240.596 359.643 240.556 359.643C239.846 359.433 239.157 359.153 238.507 358.793C237.837 358.473 237.207 358.093 236.616 357.633L235.886 356.623C235.507 356.413 235.167 356.193 234.907 355.973L234.772 356.147C234.345 356.662 234.632 355.887 234.657 355.733L233.389 354.008C230.382 349.903 227.083 345.297 224.396 341.613L224.311 341.763C224.25 341.876 224.218 341.957 224.247 341.993C217.852 332.805 211.838 321.707 210.167 310.963C208.194 302.687 208.965 294.159 210.686 286.493C218.065 259.648 242.237 198.9 273.976 172.863ZM447.524 544.116L447.123 543.759L447.475 544.201C447.66 544.429 447.849 544.634 448.157 544.843C448.137 544.773 448.137 544.703 448.146 544.623C447.942 544.467 447.733 544.297 447.524 544.116ZM503.646 129.633C456.738 125.6 410.601 135.934 365.839 148.443L362.751 149.33C337.299 156.593 310.386 163.128 288.877 178.673C258.826 201.69 243.308 238.306 229.766 272.113C217.941 297.231 223.986 325.554 241.806 343.093C243.66 325.664 246.821 308.745 251.761 291.962C252.792 289.34 252.012 288.481 254.234 288.139C257.59 333.367 241.061 366.783 273.771 420.385C287.964 445.677 271.534 464.183 311.614 477.492L312.699 477.906C321.049 481.057 330.167 483.544 338.346 481.783L337.613 480.591C336.866 479.364 336.639 478.768 337.726 478.243C337.697 478.183 337.657 478.123 337.616 478.053C336.737 476.393 335.887 474.713 335.076 473.013C334.747 473.123 334.417 473.203 334.076 473.293C334.297 473.703 334.326 474.113 333.707 474.253C331.503 475.009 329.24 475.312 326.924 475.17L326.427 475.133C323.81 474.973 322.161 474.496 320.686 474.053C320.197 473.973 319.707 473.893 319.226 473.793C314.481 472.741 309.458 470.065 306.207 467.413C269.149 446.365 272.979 374.716 318.657 367.943C319.594 322.831 341.051 246.723 376.661 203.736C408.849 164.195 496.723 147.057 557.859 153.1C558.75 153.395 559.641 153.693 560.532 153.994C569.964 154.832 578.953 159.034 588.392 160.986C581.615 155.907 573.927 152.524 566.008 149.649C550.23 139.998 532.142 134.776 514.667 131.093C511.047 130.203 507.377 129.713 503.646 129.633ZM316.566 404.183C319.022 402.849 318.741 404.137 319.306 403.763C336.972 402.322 356.021 417.789 365.896 430.683C365.116 431.493 363.006 429.093 362.636 428.713C362.586 428.763 362.526 428.803 362.466 428.823L362.741 429.211C366.744 434.955 358.809 428.196 358.066 426.803C357.936 426.873 357.806 426.913 357.656 426.883C358.285 427.5 360.206 429.109 360.536 430.253L361.045 430.677C365.848 434.789 365.449 437.883 359.997 432.043C360.126 432.313 360.176 432.563 360.086 432.763L360.274 432.888C362.955 434.762 365.16 439.984 359.556 434.623C360.139 438.539 354.003 430.97 353.806 431.023C343.188 422.688 327.555 414.582 314.236 413.493L313.778 413.44C311.334 413.126 310.178 412.401 311.036 410.803C308.026 410.087 308.731 408.605 310.156 408.653C308.033 407.257 309.944 405.922 311.176 406.443C310.329 404.098 313.726 405.66 314.036 405.333C315.799 402.614 316.274 404.882 316.566 404.183ZM279.536 258.833C288.021 255.725 313.084 265.029 311.079 277.351C309.885 280.18 305.951 281.801 303.186 280.204L299.577 277.78C293.297 273.574 287.633 269.886 280.89 266.218C277.22 264.397 275.64 260.531 279.536 258.833ZM327.811 240.522L324.534 238.389C306.85 226.816 281.851 209.279 326.186 227.423C331.239 229.59 337.953 230.872 340.71 235.684C345.041 244.553 333.643 245.149 327.811 240.522ZM329.798 188.593C328.379 183.208 346.036 189.527 351.176 191.193L351.959 191.488C356.959 193.351 362.691 195.08 365.681 199.395C369.185 205.357 362.093 206.592 357.7 203.899C348.693 198.013 338.818 193.572 329.798 188.593ZM374.699 163.508C364.76 152.654 391.359 163.052 395.343 165.938L395.457 166.023C398.43 168.116 397.827 172.624 395.034 173.948C387.087 174.099 381.239 167.475 374.699 163.508ZM419.925 151.617C404.125 140.262 424.938 145.663 432.167 150.113C437.094 154.458 432.019 161.793 419.925 151.617Z" fill="black" />
    <path fill-rule="evenodd" clip-rule="evenodd" d="M535.15 428.292C540.744 419.09 552.668 441.632 553.935 445.508C555.057 448.942 555.798 452.459 556.174 456.017C560.511 456.989 565.015 456.991 569.458 456.139C576.063 454.872 580.101 451.321 585.841 448.272C589.805 446.166 594.802 448.636 596.864 452.13C599.289 456.243 597.744 460.511 594.554 463.577C588.506 469.391 576.604 470.726 568.708 469.183C564.184 468.298 560.038 466.602 556.376 464.136C556.352 464.596 556.336 465.057 556.299 465.516L556.229 466.313C555.623 472.761 553.851 480.869 548.842 485.064C540.628 491.947 530.49 478.711 538.472 471.836L538.719 471.63C543.681 467.621 544.763 456.866 544.496 450.942C544.321 447.076 543.616 443.16 542.396 439.478L542.144 438.744C541.777 437.704 537.77 427.837 536.323 429.093L536.253 429.164C535.656 429.877 534.692 429.047 535.15 428.292ZM579.814 376.367C587.366 380.957 598.872 391.66 590.748 403.04C581.186 413.073 567.419 401.569 560.634 396.366C554.344 392.334 547.276 402.705 553.112 407.413C602.136 443.708 622.031 377.567 583.634 370.97C579.406 370.243 577.836 374.947 579.814 376.367ZM499.179 333.94C506.559 332.631 514.119 334.466 520.226 338.784L520.689 339.117C526.572 343.42 533.155 350.976 529.779 358.392C528.424 361.37 524.366 361.837 521.791 360.487C517.504 358.239 516.727 352.708 512.902 349.647C509.765 347.138 505.541 345.616 501.501 345.983C492.01 346.845 486.172 356.206 483.224 364.273C482.847 365.305 481.332 365.706 480.74 364.598C473.789 351.606 486.093 336.262 499.179 333.94ZM617.389 329.037C631.526 327.872 648.073 342.528 644.351 357.45C642.566 364.61 631.945 364.405 630.057 357.45C629.018 353.623 629.122 350.237 626.367 347.059C624.093 344.435 620.862 342.911 617.389 343.145C613.561 343.403 610.03 345.316 607.347 348.005C604.924 350.433 603.475 353.986 600.965 356.135C600.347 356.663 599.52 356.697 598.91 356.135C594.59 352.152 597.183 343.86 599.922 339.702C603.842 333.752 610.225 329.628 617.389 329.037ZM472.258 307.475C481.327 299.447 497.806 291.694 510.035 295.645C517.066 297.916 520.131 309.245 512.282 312.836C503.193 316.994 492.714 315.302 483.463 319.612C479.578 321.423 475.924 323.686 473.219 327.005C471.088 329.621 468.92 333.063 465.838 334.571C465.028 334.968 463.931 334.978 463.282 334.242C456.526 326.6 466.359 312.696 472.258 307.475ZM601.802 295.247C607.407 293.674 613.625 293.706 619.319 294.694C625.011 295.682 630.79 298.041 635.437 301.482L635.976 301.885C641.049 305.707 647.103 311.27 646.779 318.042C646.508 323.697 640.559 327.522 635.423 324.558C631.236 322.141 629.266 317.299 625.721 314.075C622.796 311.414 619.36 309.316 615.694 307.846C611.622 306.213 607.543 305.448 603.173 305.375C599.808 305.319 596.423 306.423 593.121 306.776C593.393 307.334 590.783 307.074 589.287 306.579C588.179 306.107 588.173 304.706 588.557 303.797C590.462 299.294 597.393 296.483 601.802 295.247Z" fill="black" />
    <path fill-rule="evenodd" clip-rule="evenodd" d="M266.813 634.704C316.598 623.739 346.126 623.739 362.834 606.751C379.542 589.764 382.574 560.606 389.505 538.092C393.324 525.687 430.74 514.419 467.035 516.183C496.613 517.621 526.421 530.11 528.724 538.092C533.851 555.869 542.098 631.966 569.215 643.657C596.333 655.348 654.226 644.689 670.778 672.609C687.331 700.529 741.689 814.341 741.689 840.861C741.689 867.38 210.243 859.271 210.243 859.271C210.243 859.271 217.028 645.669 266.813 634.704Z" fill="#EDB98A" />
    <path fill-rule="evenodd" clip-rule="evenodd" d="M37.7854 1252.44C37.9454 1252.99 38.5454 1252.98 37.7854 1252.44V1252.44ZM34.8354 1250.24C34.8854 1250.28 34.9454 1250.32 35.0054 1250.36C34.4054 1250.31 34.0354 1249.7 34.8354 1250.24ZM821.335 1179.93C817.995 1165.66 814.665 1151.38 811.325 1137.11C804.355 1107.27 797.375 1077.42 790.405 1047.57C776.755 989.19 763.115 930.81 749.465 872.43C742.535 842.76 734.615 813.32 727.465 783.7C721.205 757.74 716.035 731.16 705.285 706.59C694.315 681.51 675.045 660.55 649.525 649.92C628.035 640.98 603.865 636.03 580.465 634.9C583.405 631.3 584.095 625.97 579.805 621.62C574.485 616.23 573.405 608.22 571.985 601.09C570.215 592.18 567.465 582.63 562.165 575.13C559.925 571.96 556.665 570.48 552.825 571.33C550.465 571.85 548.144 572.46 545.855 573.15C545.115 572.41 544.385 571.62 543.745 570.66C542.295 568.44 541.355 565.19 539.275 563.49C537.865 562.33 536.264 562.05 534.615 562.89C530.184 565.14 529.815 571.95 530.764 576.13C530.955 576.94 531.184 577.75 531.465 578.54C531.165 578.68 530.855 578.82 530.545 578.96H530.535C524.755 577.86 517.375 580.18 511.735 580.74C505.184 581.39 498.605 581.82 492.025 582.03C478.555 582.46 465.065 582.06 451.655 580.71C438.585 579.41 425.605 577.32 412.695 574.96C404.655 573.49 394.855 572.27 387.795 567.44C387.684 565.03 387.625 562.61 387.575 560.2C387.474 556.01 387.695 552.72 385.465 549.04C385.434 549 385.385 548.99 385.335 549.01C382.575 550.45 380.595 552.91 379.144 555.83C376.495 555.12 373.644 555.22 371.175 556.25C367.684 557.7 365.085 559.37 362.375 562.05C358.345 566.02 357.165 570.66 355.985 575.99C355.135 579.81 354.605 582.54 353.085 585.1C352.755 585.65 352.405 586.23 352.025 586.76C351.885 586.9 351.625 587.17 351.184 587.63C350.745 588.07 350.305 588.5 349.855 588.93C349.595 589.19 348.315 590.23 348.514 590.09C342.974 594.21 337.965 595.76 331.125 597.73C316.405 601.97 301.325 604.74 286.655 609.24C270.625 614.16 254.945 620.14 239.615 626.93C179.985 653.34 126.615 695.15 90.2254 749.6C47.8454 813.02 32.2454 890.05 24.5154 964.73C16.0554 1046.58 16.6454 1129.36 14.7954 1211.55C14.5654 1221.83 14.3354 1232.11 14.1054 1242.39C13.8754 1252.44 13.2554 1263.26 22.1754 1270.03C30.1254 1276.05 39.8054 1274.16 48.6054 1271.45C58.0254 1268.56 67.6154 1266.26 77.3254 1264.61C95.6454 1261.52 114.545 1261.15 133.025 1262.95C142.955 1263.92 155.105 1267.6 163.265 1259.82C166.195 1257.02 167.885 1253.47 169.265 1249.74C170.985 1245.14 172.995 1240.63 174.995 1236.11C176.645 1232.39 178.285 1228.65 179.925 1224.92C182.585 1236.57 185.245 1248.22 187.905 1259.88C188.955 1264.47 193.745 1264.82 196.635 1262.59C201.355 1265.12 207.555 1265.07 212.915 1265.69C221.535 1266.68 230.224 1267.02 238.885 1267.32C255.855 1267.9 272.825 1268.22 289.805 1268.44C324.425 1268.88 359.045 1268.72 393.655 1268.57C462.224 1268.27 530.785 1266.87 599.325 1265.09C618.625 1264.59 637.925 1264.14 657.224 1263.67C666.865 1263.44 676.514 1263.21 686.165 1262.94C689.055 1262.86 691.974 1262.59 694.715 1261.95H694.724C695.945 1263.02 697.445 1263.84 699.235 1264.33C705.644 1266.09 712.014 1262.17 713.934 1255.98C714.825 1253.14 715.445 1250.54 715.224 1247.78C715.555 1245.7 715.885 1243.62 716.215 1241.54C726.915 1248.31 739.755 1250.15 752.425 1249.31C766.755 1248.36 781.085 1245.74 795.305 1243.79C808.655 1241.96 830.295 1242.55 830.935 1224.11C831.165 1217.36 828.314 1209.79 826.795 1203.29C824.974 1195.5 823.155 1187.72 821.335 1179.93Z" fill="black" />
    <path fill-rule="evenodd" clip-rule="evenodd" d="M601.132 490.723C597.642 489.581 594.214 488.252 590.77 486.971C573.161 478.126 551.89 476.522 533.423 483.971C524.359 487.627 515.907 494.196 506.812 498.501C504.652 499.307 502.474 500.039 500.272 500.653C498.922 500.183 497.572 499.683 496.232 499.183C486.585 495.547 477.511 491.062 468.701 486.128C467.761 484.805 466.786 483.519 465.738 482.284C472.113 481.379 478.355 479.875 484.002 478.323C501.342 473.573 517.682 465.833 534.962 460.873C551.052 456.243 568.512 453.713 584.672 459.463C592.342 462.193 599.092 466.973 606.552 470.193C610.412 471.853 615.042 473.483 619.552 473.723C616.642 480.693 612.962 487.203 607.932 492.623C605.632 492.133 603.352 491.443 601.132 490.723ZM638.653 436.131C637.109 437.414 630.737 441.554 628.67 444.022C628.136 443.819 627.605 443.611 627.077 443.397C626.168 442.281 624.829 441.791 623.464 441.821C613.935 437.389 605.452 431.126 597.882 423.273C592.502 417.703 586.992 411.873 579.802 408.643C571.332 404.823 563.002 406.583 554.102 407.163C544.632 407.793 535.282 405.103 525.822 406.393C518.902 407.343 512.422 410.273 506.822 414.403C495.392 422.833 487.512 434.673 477.852 444.883C466.892 456.463 453.412 463.863 438.422 467.643C438.242 467.523 438.052 467.403 437.862 467.293C426.812 457.293 416.832 446.003 408.002 433.973C399.382 422.223 376.652 369.333 371.162 364.693C368.882 362.763 366.382 361.933 363.992 362.003C359.662 362.103 355.662 365.113 353.872 369.853C350.832 377.913 352.352 388.333 352.592 396.763C352.892 407.083 353.572 417.393 354.652 427.663C355.722 437.813 357.142 447.933 358.912 457.983C359.802 463.063 360.792 468.133 361.882 473.183C362.222 474.773 362.652 476.193 363.172 477.513C363.702 480.003 364.272 482.483 364.882 484.943C368.862 501.053 375.142 517.183 387.132 529.073C399.612 541.463 416.572 549.693 432.322 557.053C447.322 564.063 463.042 570.293 479.172 575.173C493.182 581.523 508.182 586.543 523.242 589.183C539.822 592.093 557.252 592.273 573.262 586.513C581.132 583.683 588.572 579.733 595.322 574.813C604.892 569.843 613.502 563.013 620.552 553.973C633.179 537.772 639.206 518.111 641.843 497.838C642.518 492.649 645.056 472.762 645.255 469.665C645.9 459.666 646.544 449.667 647.189 439.667C647.493 434.948 641.701 433.601 638.653 436.131Z" fill="black" />
  </g>
  <defs>
    <clipPath id="clip0_13_19210">
      <rect width="818" height="1281" fill="white" />
    </clipPath>
  </defs>
</svg>