<svg viewBox="0 0 1130 1270" fill="none" xmlns="http://www.w3.org/2000/svg">
<path fill-rule="evenodd" clip-rule="evenodd" d="M1098.37 692.191C1082.62 693.738 1066.88 695.283 1051.13 696.831C975.721 702.598 900.34 714.641 825.507 721.869C823.643 718.834 819.996 719.334 817.782 721.443C810.315 720.788 801.946 715.076 795.182 721.018C794.962 720.987 794.743 720.951 794.521 720.93C782.477 697.793 774.152 673.116 766.072 648.406C760.915 633.213 753.977 618.507 741.155 608.307C719.273 593.103 669.136 562.274 643.442 563.57C643.016 558.965 640.871 554.219 637.35 551.153C645.111 537.91 614.08 529.27 611.891 530.805C613.294 486.56 592.5 448.137 546.651 439.326C505.575 430.759 447.152 429.32 425.06 472.285C422.632 472.012 397.809 471.882 395.407 472.152C391.673 467.418 350.664 512.274 367.472 527.89C217.206 594.422 131.764 586.483 90.1728 773.524C84.55 791.094 84.1405 810.321 78.2031 827.5C57.0797 876.869 39.9464 929.439 35.6824 983.157C25.3839 985.798 24.1996 1003.97 36.1284 1006.6C40.6849 1007.61 44.4952 1008.98 47.8176 1011.58C45.2204 1055.61 55.8578 1156.17 62.56 1155.86C76.2262 1199.39 137.185 1211.67 180.341 1196.38C172.902 1210.39 180.341 1219.19 180.341 1226.68C335.63 1232.56 505.421 1229.17 660.667 1237.24C680.525 1236.95 701.413 1242.12 721 1239.15C732.945 1236.28 732.965 1217.48 720.848 1215.16L773.792 1203.65C772.608 1203.2 795.615 1187.88 813.003 1159.26C829.188 1127.24 818.173 1088.6 825.507 1053.77C882.785 1049.08 941.011 1047.07 997.662 1037.37C1005.39 1060.5 1038.82 1032.83 1049.45 1021.7C1049.44 1021.69 1049.43 1021.67 1049.41 1021.65C1054.56 1020.24 1058.68 1015.42 1058.82 1009.71C1062.43 1004.55 1063.18 997.277 1059.72 992.291C1075.58 900.721 1099.75 807.226 1108.49 714.794C1111.58 714.11 1114.48 712.755 1116.95 710.667L1116.75 710.467C1120.93 705.805 1121.74 697.758 1114.78 693.797C1109.16 690.598 1104.47 691.591 1098.37 692.191Z" fill="#EDB98A"/>
<path fill-rule="evenodd" clip-rule="evenodd" d="M499.518 1034.92L511.648 1042.64L610.89 1074.65L671.538 1082.37L721.159 1074.65V1159.63L731.083 1239.1C726.673 1247.19 684.77 1247.19 605.377 1239.1C554.765 1233.94 369.794 1231.43 327.68 1230.33L325.294 1230.27C275.805 1228.84 226.919 1228.84 178.636 1230.27V1200.47L316.472 1132.04L439.973 1062.51L499.518 1034.92ZM429.199 465.34L438.313 472.152L418.413 504.876L515.354 583.36V646.048L546.045 675.102L563.587 646.048L588.306 613.145L605.873 559.811L599.892 524.673L611.92 523.539C611.978 525.941 611.968 528.364 611.891 530.805C614.08 529.27 645.111 537.91 637.35 551.153C640.871 554.22 643.016 558.965 643.442 563.57C669.136 562.274 719.273 593.103 741.155 608.307C753.977 618.507 760.915 633.213 766.072 648.406L767.287 652.112L768.54 655.916L769.803 659.718C776.781 680.617 784.316 701.326 794.521 720.93C794.743 720.951 794.962 720.987 795.182 721.018C801.946 715.076 810.315 720.789 817.782 721.443C819.945 719.383 823.475 718.858 825.374 721.663L825.507 721.869L732.471 740.213L671.095 955.701L617.645 912.275L588.955 916.546L513.19 943.896L425.071 966.806L223.907 1022.32H198.29L49.2231 986.286L35.7891 981.848C40.2253 928.584 57.2515 876.468 78.2033 827.5C84.1406 810.322 84.5501 791.094 90.1729 773.524C131.764 586.484 217.206 594.422 367.472 527.89C350.665 512.274 391.673 467.418 395.407 472.152L395.643 472.131L396.151 472.104L396.807 472.081C402.669 471.91 422.881 472.04 425.06 472.285C426.324 469.827 427.707 467.514 429.199 465.34Z" fill="#FFCF77"/>
<path fill-rule="evenodd" clip-rule="evenodd" d="M1113.24 698.734L1110.47 714.191C1109.81 714.407 1109.14 714.589 1108.46 714.74C1107.59 723.954 1106.57 733.179 1105.41 742.412L1088.23 838.255C1085.27 855.211 1082.45 872.203 1079.66 889.202L1075.96 907.46L1073.67 918.808C1068.72 943.383 1063.92 967.878 1059.7 992.237C1060.33 993.154 1060.83 994.149 1061.19 995.194L1060.86 996.567L1060.64 997.482L1060.41 998.386C1057.08 1011.19 1051.29 1023.61 1037.64 1027.37C1027.35 1030.21 1016.06 1030.47 1005.43 1031.59L1004.25 1031.72L818.272 1052.65C795.8 1055.18 773.339 1057.79 750.88 1060.42L731.41 1062.71C704.272 1065.85 676.979 1068.33 650.241 1074.02C649.258 1074.23 648.445 1074.62 647.781 1075.14C653.165 1054.74 658.319 1034.37 662.99 1013.76C668.248 990.57 673.237 967.333 678.861 944.225C690.19 897.672 702.89 851.424 716.793 805.574C719.71 795.951 722.695 786.347 725.745 776.765L727.886 770.067L729.533 764.73C732.083 756.592 735.237 748.228 742.712 743.739C751.461 738.485 763.39 737.614 773.312 735.797L780.031 734.534C790.084 732.657 800.149 730.851 810.227 729.116C858.476 720.81 906.999 714.147 955.7 709.142C1006.38 703.933 1057.23 700.548 1108.15 698.894L1113.24 698.734ZM651.634 1018.3L652.109 1018.34L645.162 1073.92C644.051 1073.14 642.641 1072.67 640.92 1072.67C618.133 1072.74 596.29 1065.45 575.162 1057.43L571.945 1056.21L562.975 1052.76C553.857 1049.26 544.69 1045.84 535.353 1043L531.578 1041.86L529.659 1041.3C522.59 1039.23 515.153 1037.35 507.799 1036.89L506.796 1036.83L508.938 1035.71C509.251 1035.54 509.526 1035.36 509.769 1035.16C513.817 1035.46 517.873 1035.38 522.143 1034.61C530.172 1033.16 537.98 1030.36 545.15 1026.47L548.352 1024.73L549.663 1024.04L550.529 1023.59L551.39 1023.15C557.548 1020.08 563.436 1018.16 571.211 1019.79C580.037 1021.65 587.772 1026.41 595.728 1030.44L597.14 1031.14L598.089 1031.6L599.057 1032.06L600.037 1032.5C610.796 1037.35 627.919 1042.58 632.044 1027.94C633.702 1022.05 632.404 1016.55 629.528 1011.72C634.887 1011.25 644.461 1017.58 651.634 1018.3ZM919.453 835.166L919.582 835.833C921.104 844.031 917.289 851.872 911.515 857.589C906.779 862.278 898.397 864.884 896.023 871.628C894.672 875.466 896.109 879.104 898.886 881.642L898.246 881.958L897.621 882.278L897.011 882.601L896.416 882.927L895.836 883.254C886.404 888.678 878.722 897.498 887.229 908.152C896.88 920.238 917.045 920.63 931.252 919.684L932.209 919.617C945.986 918.583 962.305 913.952 969.775 901.22C973.201 895.379 972.823 888.316 968.048 883.317C965.166 880.302 960.027 877.205 955.314 876.839C955.52 874.181 955.204 871.614 954.27 869.447C952.25 864.764 946.874 861.611 941.689 861.497C942.109 851.554 934.152 841.738 928.293 833.789L927.694 832.973L927.114 832.171C924.425 828.428 918.673 830.525 919.453 835.166ZM927.314 845.75L932.653 865.764L932.561 865.929C930.681 869.503 935.61 873.56 938.533 870.557L938.828 870.239C942.298 866.652 947.624 871.474 947.69 875.291C947.785 880.665 944.289 884.821 940.125 887.565L939.833 887.755L939.065 888.232C935.648 890.493 938.235 895.22 941.992 894.644C946.641 893.932 950.451 890.242 952.8 885.634C955.31 886.353 958.165 886.266 960.809 887.746C967.469 891.475 963.638 897.997 959.301 901.939L959.125 902.097L958.772 902.405C950.815 909.197 939.981 911.556 929.769 912.062L929.18 912.089C918.865 912.531 905.425 912.679 896.584 906.606C891.081 902.827 889.488 897.468 894.144 892.392C896.778 889.523 899.436 886.629 902.173 883.833C906.27 885.789 909.928 884.996 914.117 883.144C914.654 882.906 914.357 882.083 913.831 882.083C911.52 882.081 903.039 877.787 902.626 875.043C902.245 872.503 906.937 870.362 909.218 869.135L909.549 868.954L909.836 868.787C912.222 867.34 914.468 865.656 916.521 863.764C921.732 858.963 925.517 852.941 927.17 846.351L927.314 845.75Z" fill="white"/>
<path fill-rule="evenodd" clip-rule="evenodd" d="M427.923 462.307C432.601 450.538 448.417 455.113 446.654 467.476C445.599 474.882 441.546 482.704 437.907 489.195C434.942 494.478 431.562 499.634 426.978 503.594C435.138 511.214 443.607 518.556 452.292 525.527C461.769 533.132 471.734 540.143 482.034 546.586C491.066 552.237 500.506 557.243 509.02 563.691C516.936 569.685 524.148 576.894 527.818 586.305C531.727 596.327 530.028 606.677 527.149 616.692L526.819 617.824C523.878 627.747 518.787 639.707 525.846 649.055C529.44 653.815 534.664 657.185 539.175 660.99C543.185 664.371 546.948 668.049 550.4 671.999C557.925 680.61 564.046 690.299 567.909 701.095L568.255 702.076C571.565 711.633 573.985 723.341 569.511 732.725C568.228 735.414 564.088 734.54 563.369 731.921C561.744 725.988 561.829 719.774 560.466 713.757C559.048 707.499 556.688 701.559 553.606 695.939C547.643 685.067 539.567 675.78 530.026 667.928L527.17 665.604C519.726 659.49 512.887 653.003 511.377 642.885C509.76 632.059 514.094 621.746 516.88 611.499C518.822 604.358 519.456 597.513 517.358 591.06C514.794 595.249 511.296 599.224 508.529 602.77C503.019 609.835 497.457 616.857 491.91 623.891C486.222 631.105 480.674 638.432 475.391 645.95C473.028 649.313 470.691 652.695 468.361 656.081C466.608 658.627 464.165 661.169 462.255 663.765C462.719 665.154 462.684 666.754 461.843 667.891C451.714 681.588 437.306 653.009 433.548 645.789C425.895 631.084 420.2 615.463 412.522 600.762C404.566 585.522 395.506 570.688 385.409 556.775C379.301 548.36 372.455 540.455 366.868 531.772C353.705 543.719 336.384 551.727 320.474 558.989C302.994 566.967 284.834 573.485 266.912 580.406L261.618 582.464C230.737 594.526 199.102 607.779 173.434 629.205C143.272 654.383 125.429 689.476 112.144 725.816C96.8524 767.651 84.2012 810.615 72.408 853.551C66.3729 875.52 60.6467 897.588 55.2633 919.727C50.5196 939.231 46.5874 958.93 41.096 978.233C52.2332 977.839 64.935 982.155 74.4435 983.401C117.778 989.078 160.529 998.128 201.442 1013.8C206.496 1015.73 207.958 1020.78 206.858 1024.88C209.772 1024.06 212.684 1023.22 215.599 1022.4C212.406 1017.51 213.93 1008.75 214.181 1003.32L214.196 1002.95C214.454 995.718 215.238 988.478 215.747 981.259C216.715 967.497 217.975 953.836 219.65 940.153L220.078 936.732C221.977 921.845 223.38 906.871 225.452 892.01L225.697 890.31C224.704 886.507 223.547 882.752 222.333 879.012C219.098 869.052 214.531 859.676 210.53 850.028C210.058 848.893 211.674 848.24 212.43 848.921C219.207 855.024 224.59 862.765 228.915 870.862C228.99 870.48 229.056 870.097 229.134 869.715L229.628 867.284C230.845 861.355 232.325 855.116 235.959 850.308C236.346 849.797 237.111 849.69 237.477 850.308C240.955 856.198 241.344 863.658 241.879 870.361C242.485 877.943 242.561 885.621 242.454 893.224C242.245 908.083 241.199 922.984 240.365 937.819C239.547 952.397 237.941 966.789 235.872 981.224L235.478 983.931C234.466 990.801 233.638 997.757 232.303 1004.58L231.926 1006.44C231.213 1009.82 230.774 1014.59 229.354 1018.56C265.895 1008.36 302.492 998.387 339.158 988.594C365.659 981.515 392.188 974.542 418.705 967.524C420.105 965 421.847 962.643 424.021 960.536C431.186 953.591 440.68 950.493 449.388 955.839C450.096 956.275 450.155 957.385 449.388 957.805C447.719 958.718 446.048 959.654 444.406 960.63L460.329 956.313C472.23 953.085 484.274 949.051 496.455 946.801C518.891 935.718 543.023 927.697 566.658 919.769L569.443 918.826C581.545 914.697 594.062 910.074 606.565 907.784C615.719 906.109 626.463 908.131 630.144 917.516C634.804 920.59 639.188 924.203 643.419 927.755C646.478 930.323 649.41 933.052 652.392 935.71L652.941 936.193C655.379 938.309 657.31 939.727 657.909 943.097C658.217 944.837 657.112 947.19 654.968 946.959C648.406 946.256 643.07 938.643 638.619 934.097C635.181 930.583 631.715 926.95 628.577 923.088C626.748 924.085 624.24 923.906 623.076 921.698C617.037 910.254 600.496 918.184 591.344 920.898L578.233 924.782C571.678 926.727 565.125 928.682 558.584 930.67C540.605 936.135 522.715 942.25 504.574 947.268C506.197 949.054 505.973 952.231 502.89 953.439C488.69 959.016 473.111 961.9 458.358 965.726C449.044 968.145 439.735 970.577 430.429 973.024C428.834 975.611 427.686 978.538 427.203 981.945C425.427 994.473 428.852 1008.93 432.188 1021.04L432.691 1022.85C435.433 1032.59 439.468 1044.53 447.865 1050.68C449.915 1052.18 452.525 1053.23 455.156 1053.46C471.594 1045 488.03 1036.53 504.477 1028.08C507.524 1026.51 510.339 1028.63 511.023 1031.15C516.822 1030.2 522.607 1028.7 527.877 1026.91C536.732 1023.9 543.646 1018.16 551.947 1014.19C568.009 1006.51 584.411 1015.94 598.792 1023.11L602.106 1024.74C608.555 1027.88 621.972 1033.89 625.066 1025.33C628.059 1017.04 618.597 1008.18 612.485 1004.45C605.201 1000.01 596.719 997.628 588.486 995.646C583.786 994.514 579.028 993.59 574.241 992.916C568.811 992.151 563.203 992.266 557.975 990.503C555.377 989.629 554.978 985.499 557.975 984.817C566.023 982.984 575.628 984.983 584.026 987.027L588.415 988.109C596.876 990.187 605.418 992.795 613.125 996.941C618.729 999.956 624.644 1004.54 628.508 1010.14C631.863 1007.02 636.039 1007.13 640.389 1008.29L642.75 1008.94C646.649 1010.02 649.81 1010.77 653.604 1010.02C654.111 1007.26 654.625 1004.49 655.175 1001.73C660.581 974.564 666.511 947.501 673.053 920.584C684.338 874.154 697.396 828.234 712.117 782.785L713.594 778.242C716.99 767.846 719.722 756.52 725.196 746.97C730.373 737.939 738.667 732.738 748.522 729.983C759.706 726.857 771.457 725.222 782.865 723.11C785.41 722.64 787.962 722.193 790.509 721.731C788.356 717.841 786.75 713.425 785.302 710.036L785.049 709.449C781.939 702.354 779.146 695.131 776.449 687.869L774.432 682.41C769.562 669.264 764.535 656.334 757.688 644.039C750.48 631.1 740.919 620.521 729 611.765C704.699 593.912 675.408 584.806 651.838 565.726C650.872 564.945 652.111 563.608 653.091 564.103C669.006 572.107 686.187 577.549 702.741 584.065L706.006 585.355C719.09 590.546 732.377 596.197 743.702 604.602C756.328 613.975 766.272 625.614 773.746 639.456C781.112 653.099 785.824 668.371 791.021 682.944L792.411 686.827C794.507 692.65 796.672 698.455 799.153 704.121C801.122 708.62 804.798 713.756 806.468 718.894C811.039 718.101 815.609 717.305 820.184 716.54C919.279 699.98 1019.48 690.25 1119.91 687.404C1123.84 687.293 1125.87 691.045 1125.29 694.475C1115.65 751.515 1107.09 808.75 1097.69 865.832C1093.59 890.746 1089.4 915.64 1085.12 940.523C1082.95 953.129 1080.45 965.687 1078.39 978.312C1076.73 988.508 1075.53 998.783 1072.68 1008.74C1070.13 1017.67 1066.21 1026.28 1059.77 1033.1C1052.83 1040.44 1043.15 1044 1033.4 1045.68C1008.66 1049.94 983.276 1051.68 958.33 1054.52L825.514 1069.64C827.455 1087.3 827.6 1104.68 826.709 1122.54L826.202 1132.3C825.787 1140.14 825.291 1147.99 824.165 1155.76C822.754 1165.5 818.304 1173.74 811.748 1181.01C805.728 1187.69 798.415 1193.39 791.302 1198.85C783.918 1204.52 776.289 1210 767.607 1213.5L766.481 1213.95C758.864 1216.93 744.577 1221.54 734.167 1219.85C735.528 1226.68 738.161 1234.01 735.827 1240.77C734.744 1243.9 730.647 1245.47 728.138 1242.8C723.166 1237.51 722.778 1230.53 721.6 1223.63C720.375 1216.45 719.318 1209.25 718.38 1202.03C716.565 1188.06 715.152 1173.97 714.721 1159.89C714.278 1145.43 714.449 1130.95 715.227 1116.51C715.628 1109.09 716.124 1101.67 717.065 1094.3C717.466 1091.16 717.876 1088.01 718.345 1084.88C718.516 1083.74 718.705 1082.6 718.909 1081.46L706.988 1082.81C688.709 1084.85 670.422 1086.7 652.014 1086.98C649.834 1087.01 648.156 1086.02 647.06 1084.57C645.893 1086.48 643.859 1087.84 640.947 1087.83C615.24 1087.73 591.301 1079.32 567.919 1069.4C556.134 1064.4 544.531 1058.99 532.728 1054.04C521.711 1049.41 509.933 1046.11 499.182 1040.9L470.931 1055.73C470.724 1056.46 470.458 1057.15 470.176 1057.72C468.336 1061.48 464.71 1063.52 461.006 1065.06C457.451 1066.53 453.769 1066.99 450.182 1066.62C428.756 1077.86 407.326 1089.08 385.881 1100.28L364.431 1111.48C321.695 1133.75 279.128 1156.38 236.123 1178.13L232.957 1179.73C218.103 1187.18 202.153 1194.74 185.669 1200.38C185.375 1204.55 185.56 1208.62 185.91 1213.04L185.994 1214C186.486 1219.22 187.539 1225.77 183.353 1229.49C181.175 1231.42 177.285 1231.43 175.804 1228.51C173.117 1223.22 175.529 1214.89 176.381 1209.14C176.683 1207.1 177.051 1205 177.596 1202.96C158.698 1208.59 139.228 1211.32 119.997 1208.16C101.273 1205.09 86.7716 1193.28 75.0809 1178.84C62.7429 1163.6 53.9754 1145.84 49.2713 1126.8C43.9178 1105.14 43.5682 1082.77 43.6939 1060.58C43.8274 1036.95 44.7007 1013.2 47.5721 989.735C44.4261 988.994 40.9372 988.354 37.7581 988.575C36.1835 991.097 33.1291 992.159 30.369 991.831C24.3671 998.456 39.5908 1005.23 44.4559 1006.92C46.1452 1007.51 45.9644 1010.26 44.0159 1010.18L42.7886 1010.12C35.2712 1009.72 27.5046 1008.43 23.0847 1001.44C19.5428 995.835 20.6069 989.195 24.8291 984.625C27.6178 958.234 34.2847 932.534 40.4895 906.79C46.5786 881.521 53.3502 856.414 60.5276 831.435L63.7453 820.254C75.046 781.086 86.858 741.602 102.446 703.99C110.23 685.21 119.197 666.775 131.352 650.4C142.682 635.135 156.059 622.073 171.435 610.917C200.099 590.117 233.734 577.549 266.782 565.575L268.261 565.04C285.387 558.839 302.471 552.565 319.402 545.847C334.375 539.906 348.72 532.373 363.623 526.342C363.139 525.463 362.671 524.573 362.221 523.674L361.946 523.906C361.899 523.943 361.85 523.979 361.8 524.014C360.301 525.053 358.095 524.542 356.86 523.376C353.373 520.082 354.553 516.426 356.881 513.011L357.184 512.576C360.031 508.584 362.571 504.364 365.198 500.227L366.844 497.64C371.255 490.729 375.89 483.772 381.771 478.061C384.494 475.414 387.476 473.434 390.635 471.958C390.365 471.387 392.734 470.218 393.405 470.806C403.414 467.14 414.93 467.908 425.842 468.919M819.087 1070.37L805.172 1071.96C789.862 1073.7 774.546 1075.39 759.229 1077.06L725.958 1080.67C725.873 1082.57 725.642 1084.43 725.6 1085.86C725.383 1093.25 725.221 1100.65 725.068 1108.04C724.76 1122.86 725.098 1137.7 726.072 1152.49C727.017 1166.82 728.262 1181.16 730.195 1195.39L730.591 1198.24L730.821 1199.73C732.398 1199.89 733.949 1200.64 735.238 1202.18C738.052 1205.54 748.242 1202.27 752.222 1200.86C758.766 1198.52 764.929 1194.59 770.615 1190.64C776.169 1186.78 781.169 1182.29 785.975 1177.55L789.906 1173.66C793.817 1169.77 797.733 1165.62 800.129 1160.73C803.379 1154.09 803.799 1145.95 804.751 1138.72C805.925 1129.83 807.322 1120.95 808.798 1112.1M415.112 977.065L413.668 977.444C361.234 991.389 308.879 1005.75 256.284 1019.08C230.256 1025.67 204.104 1031.79 178.044 1038.26L173.825 1039.32C153.267 1044.52 132.462 1050.78 116.718 1065.7C116.137 1066.25 115.294 1065.41 115.841 1064.82C132.808 1046.75 156.939 1039.09 180.109 1032.46C184.392 1031.23 188.68 1030.03 192.964 1028.82C161.453 1017.57 129.446 1007.79 96.6991 1000.81C88.2668 999.017 79.7364 997.698 71.3108 995.895C65.4347 994.636 59.6961 992.817 53.882 991.308L49.3088 990.157L49.2481 1004.62C49.172 1025.11 49.2083 1045.59 50.2527 1066.07L50.4504 1069.87C51.669 1092.67 53.571 1115.94 61.6545 1137.44C68.2233 1154.91 78.6933 1171.36 92.3854 1184.09C99.3136 1190.53 106.762 1195.54 115.97 1198.01C124.519 1200.31 133.476 1200.58 142.264 1199.97C184.419 1197.02 221.944 1174.1 258.562 1155.13C318.457 1124.09 378.358 1093.06 438.313 1062.14C436.692 1061.03 435.166 1059.76 433.778 1058.32C425.738 1050.01 421.497 1038.63 418.712 1027.61C415.747 1015.89 413.974 1003.32 413.767 991.209M491.399 1074.12C491.928 1073.84 492.542 1074.2 492.566 1074.79C492.751 1079.38 490.22 1083.9 488.33 1088.03L488.13 1088.47C485.833 1093.58 483.318 1098.63 480.716 1103.6C475.517 1113.52 470.114 1123.34 464.475 1133.01C453.135 1152.48 440.533 1171.13 425.638 1188.09C422.274 1191.92 416.74 1187.01 418.9 1182.88C429.309 1163.01 441.444 1144.24 453.935 1125.63C460.189 1116.32 466.438 1106.99 472.753 1097.72C475.387 1093.85 478.055 1090 480.796 1086.2L482.449 1083.93M1113.27 698.789C1060.65 700.379 1008.09 703.814 955.727 709.196C907.026 714.201 858.503 720.864 810.254 729.171C800.176 730.905 790.111 732.711 780.058 734.588L774.028 735.723C763.974 737.63 751.691 738.417 742.739 743.793C733.302 749.461 730.751 761.306 727.611 771.073C723.919 782.56 720.321 794.081 716.82 805.628C702.917 851.479 690.217 897.726 678.888 944.28C673.265 967.388 668.275 990.625 663.017 1013.82C658.346 1034.42 653.192 1054.79 647.808 1075.19C648.472 1074.68 649.285 1074.28 650.268 1074.08C677.006 1068.38 704.299 1065.91 731.437 1062.76L734.062 1062.45C762.136 1059.15 790.209 1055.87 818.299 1052.71L1004.28 1031.78C1015.25 1030.54 1027 1030.37 1037.67 1027.43C1055.82 1022.42 1060.07 1002.11 1063.12 985.937L1063.21 985.448C1072.39 936.585 1079.7 887.297 1088.26 838.31M652.136 1018.39C644.916 1017.92 635.033 1011.3 629.555 1011.77C632.431 1016.6 633.729 1022.11 632.071 1027.99C627.459 1044.36 606.599 1035.89 596.552 1030.89C588.313 1026.79 580.359 1021.77 571.238 1019.85C560.906 1017.67 553.906 1021.79 545.177 1026.53C538.008 1030.42 530.199 1033.21 522.17 1034.66C517.9 1035.43 513.844 1035.51 509.796 1035.21C509.553 1035.41 509.278 1035.6 508.965 1035.76L506.824 1036.89C516.506 1037.33 526.369 1040.32 535.38 1043.06C544.717 1045.89 553.884 1049.31 563.002 1052.81L571.972 1056.26C594.098 1064.74 617.001 1072.79 640.947 1072.72C642.668 1072.72 644.079 1073.2 645.189 1073.97M611.738 967.099C618.871 966.226 625.456 967.162 631.155 971.81C638.03 977.415 642.648 986.71 652.53 987.32C655.411 987.498 656.081 991.553 653.217 992.4C645.861 994.58 639.905 990.597 634.893 985.425L631.524 981.901C626.571 976.768 622.003 972.8 613.599 973.107C604.599 973.436 595.584 975.517 586.642 976.576C576.513 977.774 566.386 978.796 556.224 979.678C555.752 979.719 555.672 978.975 556.114 978.866L567.495 976.031M604.853 937.911L606.029 937.793C616.387 936.787 625.86 936.748 635.111 942.325L636.886 943.399C645.226 948.473 654.305 954.451 659.521 962.666C660.374 964.011 658.964 965.593 657.536 965.251C647.511 962.842 640.183 955.481 631.753 949.971C622.292 943.788 612.518 944.808 601.731 945.768C591.286 946.699 580.847 947.977 570.505 949.72C560.787 951.355 551.038 953.938 541.222 954.761L541.224 954.741C540.103 954.739 539.463 953.054 540.606 952.482C550.568 947.503 562.106 945.147 572.942 942.872M919.521 835.44C918.52 830.647 924.411 828.424 927.141 832.226L927.722 833.028C933.62 841.116 942.151 851.265 941.716 861.552C946.901 861.666 952.277 864.819 954.297 869.502C955.231 871.668 955.547 874.236 955.341 876.893C960.054 877.26 965.194 880.357 968.075 883.372C972.851 888.37 973.228 895.434 969.802 901.275C962.332 914.006 946.013 918.638 932.237 919.672L931.746 919.707C917.517 920.692 897.013 920.426 887.257 908.207C877.845 896.421 888.247 886.878 898.913 881.696C896.137 879.159 894.699 875.52 896.051 871.683C898.425 864.938 906.806 862.332 911.542 857.644C917.316 851.927 921.131 844.085 919.61 835.887M927.342 845.805C925.772 852.63 921.917 858.872 916.548 863.819C914.495 865.711 912.249 867.395 909.863 868.842L909.576 869.008C907.458 870.198 902.253 872.428 902.653 875.098C903.066 877.841 911.547 882.136 913.858 882.138C914.384 882.138 914.682 882.96 914.145 883.199C909.955 885.051 906.297 885.844 902.2 883.887C899.463 886.684 896.805 889.578 894.172 892.446C889.515 897.522 891.108 902.882 896.611 906.661C905.452 912.733 918.892 912.585 929.207 912.144C939.59 911.7 950.689 909.382 958.799 902.46L959.152 902.152C963.56 898.228 967.586 891.58 960.836 887.801C958.193 886.321 955.337 886.408 952.827 885.688C950.478 890.296 946.668 893.987 942.019 894.699C938.262 895.274 935.675 890.548 939.093 888.287L939.86 887.809C944.152 885.068 947.814 880.845 947.717 875.346C947.651 871.528 942.325 866.707 938.855 870.294L938.696 870.465C935.792 873.741 930.678 869.613 932.588 865.983L932.68 865.819M250.159 655.994C250.146 655.174 251.298 654.867 251.701 655.577C258.44 667.445 261.963 681.992 265.554 695.068C269.314 708.764 272.349 722.6 275.076 736.537C280.6 764.76 283.543 792.82 283.743 821.584C283.77 825.691 277.086 826.783 276.432 822.575C272.09 794.596 267.931 766.587 263.557 738.616C261.356 724.547 258.794 710.532 256.343 696.506M316.88 676.665C316.384 675.029 318.764 674.481 319.373 675.978C332.898 709.208 337.479 746.868 328.795 781.927C327.466 787.29 319.618 784.966 320.621 779.671M491.345 647.138C491.277 645.912 492.866 645.719 493.465 646.563C499.873 655.601 502.532 667.705 513.776 672.375C519.39 674.708 525.707 674.301 530.667 678.24C533.983 680.875 536.526 685.034 534.037 689.023C533.234 690.313 530.987 690.958 529.897 689.558C528.307 687.517 527.466 685.073 525.306 683.544C522.259 681.386 518.15 681.252 514.657 680.238C510.138 678.927 506.155 676.632 502.894 673.223M598.414 496.392C599.075 496.056 599.709 496.271 600.131 496.842C600.734 497.657 600.66 498.449 599.922 499.008C600.909 501.027 602.074 506.084 602.241 506.82C602.915 509.804 603.633 512.771 604.384 515.735C605.899 521.714 607.227 527.739 608.743 533.72C610.351 540.059 612.266 546.332 614.398 552.513C614.535 552.914 614.686 553.322 614.845 553.737L615.088 554.363L615.148 554.268C615.581 553.583 616.483 554.062 616.376 554.786C616.277 555.446 616.143 556.103 616.031 556.763L616.254 557.354C617.649 561.11 618.603 565.066 616.045 568.38C615.088 569.619 614.035 570.353 612.723 570.572C610.619 577.514 607.979 584.327 605.153 590.87L604.325 592.78C600.167 602.327 595.733 611.749 589.114 619.877C581.887 628.75 571.946 634.81 565.651 644.533C562.722 649.056 560.685 653.812 559.031 658.92L558.408 660.858C557.234 664.471 555.88 667.973 552.494 670.092C551.413 670.768 549.795 670.552 548.923 669.631C541.98 662.279 549.249 648.551 553.436 641.434C559.256 631.536 567.679 625.204 576.114 617.737C585.205 609.687 591.004 598.92 596.614 588.312C600.05 581.814 603.366 575.175 606.859 568.648C603.21 565.421 602.042 559.009 600.806 554.553L600.694 554.153C598.65 547.017 597.027 539.695 596.002 532.341C595.015 525.27 594.603 518.301 594.864 511.191L594.939 509.38M611.98 530.045C611.174 528.94 612.508 527.687 613.614 527.918C620.339 529.309 626.913 533.383 632.948 536.678L633.593 537.027C638.41 539.628 643.258 542.813 645.787 547.864C648.539 553.355 648.312 559.678 647.937 565.645L647.901 566.203C647.441 573.358 647.367 580.793 645.855 587.819C645.081 591.415 641.826 592.428 639.044 591.578C635.734 602.04 626.435 609.748 619.643 618.004C610.982 628.528 612.612 642.738 613.517 655.414C613.883 660.546 607.505 662.005 604.22 659.267L596.65 652.973C595.389 651.923 594.13 650.87 592.875 649.814C591.799 648.908 590.734 647.995 589.677 647.071L588.098 645.676C587.398 645.049 584.309 641.596 583.406 641.452C581.219 641.104 576.022 646.874 574.243 648.684L574.018 648.91C570.67 652.196 567.645 655.731 564.828 659.48C564.31 660.169 563.296 659.597 563.667 658.801C566.191 653.389 569.127 648.214 572.612 643.37L573.316 642.406C575.635 639.278 578.748 633.755 582.841 632.831C587.839 631.704 592.83 636.721 596.466 639.505L596.697 639.68C598.427 640.979 600.137 642.301 601.844 643.632C601.665 634.195 602.856 624.659 607.725 616.526C611.157 610.79 616.3 606.542 620.701 601.613C625.6 596.124 628.159 589.378 632.594 583.662C633.165 582.927 633.952 582.531 634.805 582.405C634.975 577.81 635.651 573.169 636.174 568.623L636.325 567.263C636.853 562.324 638.102 556.291 635.686 551.666C633.403 547.297 628.167 544.213 624.29 541.248L621.123 538.79M393.742 477.821C391.717 478.993 389.825 480.451 388.108 482.273C382.704 488.011 378.84 495.152 375.08 502.022C373.055 505.721 371.103 509.462 369.062 513.152C368.175 514.758 367.262 516.346 366.339 517.932C365.912 518.663 364.644 520.115 364.015 521.01C364.714 521.99 365.436 522.954 366.172 523.908C366.453 524.272 385.839 545.409 392.597 553.682C402.945 566.353 412.194 579.737 420.101 594.063C427.844 608.092 433.739 622.946 440.912 637.246C444.503 644.406 448.512 651.514 453.623 657.711C453.821 657.952 454.029 658.181 454.231 658.419C456.181 653.145 461.18 647.498 463.634 644.255L463.864 643.949C469.431 636.437 475.311 629.152 481.318 621.99C486.805 615.45 492.432 609.052 498.194 602.759L500.362 600.404C504.377 596.063 509.477 589.568 515.354 586.467C514.724 585.343 513.995 584.232 513.157 583.135C507.651 575.932 499.866 570.705 492.185 565.989L487.204 562.956C468.427 551.503 449.943 539.52 433.642 524.639C425.018 516.766 416.513 508.518 409.264 499.334L406.7 496.087M425.071 472.152C416.278 472.89 406.783 472.714 398.657 475.582C405.881 482.417 412.748 489.797 419.801 496.747C420.429 492.047 421.712 487.403 422.8 482.82" fill="black"/>
</g>
<path fill-rule="evenodd" clip-rule="evenodd" d="M511.801 58.7062C556.573 58.7062 610.291 80.4107 614.858 80.8448L614.981 80.8514C617.384 80.8514 626.773 88.0047 643.149 102.311L625.412 136.905L626.848 138.276C633.716 144.861 639.58 150.863 644.208 155.595C682 194.229 688.792 345.919 679.886 398.818C670.98 451.717 654.484 503.48 577.685 503.48C500.887 503.48 415.447 457.303 402.285 442.922C393.511 433.336 383.655 428.743 372.718 429.144C372.268 428.577 371.822 428.011 371.38 427.447L369.771 427.219C354.634 425.027 343.788 422.076 337.233 418.368C324.43 411.124 310.358 373.045 310.358 364.657C310.358 356.352 289.345 295.94 288.924 289.547L288.918 289.37C288.918 284.025 261.467 259.458 261.467 251.656C261.467 243.854 255.934 244.327 261.467 216.833L263.075 208.756C268.963 179.484 280.488 131.013 324.43 109.95C372.718 86.8051 466.578 58.7062 511.801 58.7062Z" fill="#EDB98A"/>
<path fill-rule="evenodd" clip-rule="evenodd" d="M384.67 298.313C384.67 298.313 364.502 307.864 344.334 323.456C324.166 339.047 334.124 339.562 334.124 339.562C334.124 339.562 333.256 372.975 339.471 386.229C345.686 399.483 382.495 401.829 382.495 401.829L388.73 422.706L387.868 432.381C383.07 430.224 378.017 429.243 372.71 429.438C372.26 428.87 371.815 428.305 371.372 427.741L369.763 427.513C354.626 425.321 343.78 422.37 337.225 418.662C324.422 411.418 310.35 373.339 310.35 364.951C310.35 360.286 303.719 339.179 297.833 320.44C293.24 305.82 289.101 292.643 288.917 289.841L288.91 289.664C288.91 287.243 283.281 280.881 277.121 273.919C269.677 265.507 261.459 256.219 261.459 251.95C261.459 249.673 260.988 248.101 260.458 246.333C259.172 242.042 257.541 236.598 261.459 217.127L263.067 209.05C268.955 179.778 280.48 131.306 324.422 110.244C372.71 87.0989 466.57 59 511.794 59C547.061 59 587.879 72.4676 605.852 78.3977C610.696 79.9958 613.88 81.0465 614.85 81.1387L614.973 81.1453C617.376 81.1453 626.765 88.2985 643.141 102.605L638.981 110.72C584.899 112.299 495.964 117.124 457.143 131.857C399.419 153.764 384.67 298.313 384.67 298.313Z" fill="#57B4EA"/>
<path fill-rule="evenodd" clip-rule="evenodd" d="M316.976 108.863C341.059 83.3012 477.78 43.7632 546.952 52.1443L549.027 52.413C554.547 53.113 559.987 54.173 565.356 55.613C582.71 59.666 600.636 65.803 614.975 76.054C626.946 84.44 664.709 98.135 653.579 120.073C657.706 127.892 659.246 137.552 656.457 145.253C656.106 147.913 655.286 150.363 654.237 152.903C663.054 165.914 670.035 180.628 675.686 194.623C685.561 229.844 691.706 266.498 692.606 302.433C695.6 370.705 688.114 452.256 628.652 496.404C592.731 524.379 536.463 525.319 496.096 490.633C493.805 487.922 483.032 480.606 486.627 479.323C487.697 480.453 488.797 481.553 489.917 482.633C489.866 482.513 489.856 482.393 489.877 482.263L488.823 481.309C486.84 479.474 484.27 476.812 487.197 477.333C487.326 477.483 487.467 477.613 487.606 477.763C488.226 478.135 488.694 478.457 489.059 478.741L489.246 478.892L489.188 478.831C487.502 477.033 486.491 475.2 489.012 476.371L489.346 476.533C490.467 477.713 491.606 478.843 492.766 479.943C492.747 479.813 492.766 479.683 492.837 479.543L491.755 478.498C490.7 477.464 490.861 477.459 491.377 476.623C489.133 473.478 493.322 475.346 493.616 476.573C496.237 475.953 498.538 480.873 500.226 481.473C574.225 538.363 681.612 487.884 679.873 329.359L679.846 326.257C679.338 275.568 675.072 223.469 654.106 177.583C652.067 173.163 649.786 168.863 647.277 164.703C645.547 161.583 643.697 158.543 641.707 155.583C636.136 155.133 630.636 154.113 625.217 152.533C623.356 152.063 621.516 151.543 619.677 150.933C592.797 152.399 566.516 153.994 539.561 155.506L531.141 156.03C508.307 157.498 484.692 159.85 466.266 173.973C448.186 186.831 448.104 212.186 432.627 226.303C410.557 241.282 410.396 254.789 406.146 276.863C406.461 293.503 417.999 317.68 396.826 324.683C400.398 329.776 395.419 327.329 395.027 325.543C394.987 325.553 394.947 325.563 394.917 325.563C398.1 331.48 393.421 327.754 393.007 325.853C392.757 325.783 392.507 325.603 392.257 325.353C395.464 330.537 390.28 326.907 390.587 325.963C384.39 316.438 371.636 314.959 362.646 317.483C362.536 317.823 362.137 317.853 361.887 317.673C323.66 325.957 333.523 405.093 372.697 397.443C374.374 397.101 374.334 397.906 374.667 397.983C373.762 395.607 376.313 396.574 376.286 397.073L376.441 397.065C376.564 397.055 376.514 397.041 376.606 397.073C375.731 392.214 380.655 399.254 380.266 399.543C380.417 399.453 380.587 399.403 380.737 399.383L380.567 398.922C379.75 396.745 379.82 397.65 379.826 396.403C379.212 394.862 379.167 395.536 379.311 394.532C381.469 392.86 382.106 397.932 382.826 398.303C381.592 396.583 382.573 395.178 383.737 396.112C392.56 414.67 403.957 432.107 418.686 445.843C420.297 447.113 421.927 448.363 423.616 449.543C429.881 455 439.491 458.509 445.356 463.343C445.356 463.423 445.317 463.523 445.257 463.623L445.391 463.744V463.744L445.527 463.873L447.567 464.853C448.167 465.363 448.707 465.933 449.186 466.563C449.697 467.153 450.146 467.803 450.527 468.493C450.717 469.333 450.297 469.683 449.497 469.323C449.146 469.203 448.797 469.063 448.447 468.933C448.467 468.963 448.476 468.983 448.497 469.003C448.612 469.177 449.388 470.977 448.493 470.684L448.387 470.643C447.896 470.463 447.407 470.263 446.927 470.073C447.497 470.783 448.016 471.553 448.476 472.203C448.967 472.713 449.266 473.313 449.387 473.993C449.366 474.373 449.157 474.533 448.777 474.483C448.197 474.293 447.627 474.093 447.056 473.883L447.218 474.193C447.622 474.986 448.195 476.317 447.177 475.873C446.306 475.603 445.467 475.293 444.627 474.953C444.556 475.093 444.417 475.143 444.137 475.013C441.467 474.063 438.887 472.903 436.417 471.533C434.247 469.953 432.056 468.403 429.877 466.833C427.826 465.603 425.846 464.233 423.957 462.693C411.311 454.525 400.24 444.149 391.457 432.593C376.768 445.314 347.399 433.161 329.232 423.203C313.163 414.303 306.847 397.847 305.214 380.105C301.819 356.219 282.299 348.043 283.657 295.633C283.627 295.643 283.596 295.643 283.556 295.643C282.846 295.433 282.157 295.153 281.507 294.793C280.837 294.473 280.207 294.093 279.616 293.633L278.886 292.623V292.623C278.507 292.413 278.167 292.193 277.907 291.973L277.772 292.147C277.345 292.662 277.632 291.887 277.657 291.733L276.389 290.008C273.382 285.903 270.083 281.297 267.396 277.613L267.311 277.763C267.25 277.876 267.218 277.957 267.247 277.993C260.852 268.805 254.838 257.707 253.167 246.963C251.194 238.687 251.965 230.159 253.686 222.493C261.065 195.648 285.237 134.9 316.976 108.863ZM490.524 480.116L490.123 479.759L490.475 480.201C490.66 480.429 490.849 480.634 491.157 480.843C491.137 480.773 491.137 480.703 491.146 480.623C490.942 480.467 490.733 480.297 490.524 480.116ZM546.646 65.633C499.738 61.6 453.601 71.934 408.839 84.443L405.751 85.3305C380.299 92.593 353.386 99.1282 331.877 114.673C301.826 137.69 286.308 174.306 272.766 208.113C260.941 233.231 266.986 261.554 284.806 279.093C286.66 261.664 289.821 244.745 294.761 227.962C295.792 225.34 295.012 224.481 297.234 224.139C300.59 269.367 284.061 302.783 316.771 356.385C330.964 381.677 314.534 400.183 354.614 413.492L355.698 413.906C364.049 417.057 373.167 419.544 381.346 417.783L380.613 416.591C379.866 415.364 379.639 414.768 380.726 414.243C380.697 414.183 380.657 414.123 380.616 414.053C379.737 412.393 378.887 410.713 378.076 409.013C377.747 409.123 377.417 409.203 377.076 409.293C377.297 409.703 377.326 410.113 376.707 410.253C374.503 411.009 372.24 411.312 369.924 411.17L369.427 411.133C366.81 410.973 365.161 410.496 363.686 410.053C363.197 409.973 362.707 409.893 362.226 409.793C357.481 408.741 352.458 406.065 349.207 403.413C312.149 382.365 315.979 310.716 361.657 303.943C362.594 258.831 384.051 182.723 419.661 139.736C451.849 100.195 539.723 83.057 600.859 89.1C601.75 89.395 602.641 89.693 603.532 89.994C612.964 90.832 621.953 95.034 631.392 96.986C624.615 91.907 616.927 88.524 609.008 85.649C593.23 75.998 575.142 70.776 557.667 67.093C554.047 66.203 550.377 65.713 546.646 65.633ZM359.566 340.183C362.022 338.849 361.741 340.137 362.306 339.763C379.972 338.322 399.021 353.789 408.896 366.683C408.116 367.493 406.006 365.093 405.636 364.713C405.586 364.763 405.526 364.803 405.466 364.823L405.741 365.211C409.744 370.955 401.809 364.196 401.066 362.803C400.936 362.873 400.806 362.913 400.656 362.883C401.285 363.5 403.206 365.109 403.536 366.253L404.045 366.677C408.848 370.789 408.449 373.883 402.997 368.043C403.126 368.313 403.176 368.563 403.086 368.763L403.274 368.888C405.955 370.762 408.16 375.984 402.556 370.623C403.139 374.539 397.003 366.97 396.806 367.023C386.188 358.688 370.555 350.582 357.236 349.493L356.778 349.44C354.334 349.126 353.178 348.401 354.036 346.803C351.026 346.087 351.731 344.605 353.156 344.653C351.033 343.257 352.944 341.922 354.176 342.443C353.329 340.098 356.726 341.66 357.036 341.333C358.799 338.614 359.274 340.882 359.566 340.183ZM322.536 194.833C331.021 191.725 356.084 201.029 354.079 213.351C352.885 216.18 348.951 217.801 346.186 216.204L342.577 213.78C336.297 209.574 330.633 205.886 323.89 202.218C320.22 200.397 318.64 196.531 322.536 194.833ZM370.811 176.522L367.534 174.389C349.85 162.816 324.851 145.279 369.186 163.423C374.239 165.59 380.953 166.872 383.71 171.684C388.041 180.553 376.643 181.149 370.811 176.522ZM372.798 124.593C371.379 119.208 389.036 125.527 394.176 127.193L394.959 127.488C399.959 129.351 405.691 131.08 408.681 135.395C412.185 141.357 405.093 142.592 400.7 139.899C391.693 134.013 381.818 129.572 372.798 124.593ZM417.699 99.5078C407.76 88.6544 434.359 99.0516 438.343 101.938L438.457 102.023C441.43 104.116 440.827 108.624 438.034 109.948C430.087 110.099 424.239 103.475 417.699 99.5078ZM462.925 87.6166C447.125 76.2616 467.938 81.6626 475.167 86.1126C480.094 90.4576 475.019 97.7926 462.925 87.6166Z" fill="black"/>
<path fill-rule="evenodd" clip-rule="evenodd" d="M644.132 426.724C640.642 425.582 637.214 424.253 633.77 422.972C616.161 414.127 594.89 412.523 576.423 419.972C567.359 423.628 558.907 430.197 549.812 434.502C547.652 435.308 545.474 436.04 543.272 436.654C541.922 436.184 540.572 435.684 539.232 435.184C529.585 431.548 520.511 427.063 511.701 422.129C510.761 420.806 509.786 419.52 508.738 418.285C515.113 417.38 521.355 415.876 527.002 414.324C544.342 409.574 560.682 401.834 577.962 396.874C594.052 392.244 611.512 389.714 627.672 395.464C635.342 398.194 642.092 402.974 649.552 406.194C653.412 407.854 658.042 409.484 662.552 409.724C659.642 416.694 655.962 423.204 650.932 428.624C648.632 428.134 646.352 427.444 644.132 426.724ZM681.653 372.132C680.109 373.415 673.737 377.555 671.67 380.023C671.136 379.82 670.605 379.612 670.077 379.398C669.168 378.282 667.829 377.792 666.464 377.822C656.935 373.39 648.452 367.127 640.882 359.274C635.502 353.704 629.992 347.874 622.802 344.644C614.332 340.824 606.002 342.584 597.102 343.164C587.632 343.794 578.282 341.104 568.822 342.394C561.902 343.344 555.422 346.274 549.822 350.404C538.392 358.834 530.512 370.674 520.852 380.884C509.892 392.464 496.412 399.864 481.422 403.644C481.242 403.524 481.052 403.404 480.862 403.294C469.812 393.294 459.832 382.004 451.002 369.974C442.382 358.224 419.652 305.334 414.162 300.694C411.882 298.764 409.382 297.934 406.992 298.004C402.662 298.104 398.662 301.114 396.872 305.854C393.832 313.914 395.352 324.334 395.592 332.764C395.892 343.084 396.572 353.394 397.652 363.664C398.722 373.814 400.142 383.934 401.912 393.984C402.802 399.064 403.792 404.134 404.882 409.184C405.222 410.774 405.652 412.194 406.172 413.514C406.702 416.004 407.272 418.484 407.882 420.944C411.862 437.054 418.142 453.184 430.132 465.074C442.612 477.464 459.572 485.694 475.322 493.054C490.322 500.064 506.042 506.294 522.172 511.174C536.182 517.524 551.182 522.544 566.242 525.184C582.822 528.094 600.252 528.274 616.262 522.514C624.132 519.684 631.572 515.734 638.322 510.814C647.892 505.844 656.502 499.014 663.552 489.974C676.179 473.772 682.206 454.111 684.843 433.838C685.518 428.649 688.056 408.762 688.255 405.666C688.9 395.666 689.544 385.667 690.189 375.668C690.493 370.949 684.701 369.602 681.653 372.132Z" fill="black"/>
<path fill-rule="evenodd" clip-rule="evenodd" d="M510.2 365.799C521.122 359.222 561.945 364.043 594.013 365.799C619.479 367.193 637.667 364.43 643.489 368.348C656.641 377.201 650.253 420.006 627.589 425.86C604.926 431.714 520.913 439.891 506.428 425.86C491.942 411.83 490.605 377.598 510.2 365.799Z" fill="white"/>
<path fill-rule="evenodd" clip-rule="evenodd" d="M524.347 354.477C541.489 352.396 558.105 357.644 574.863 360.29C583.711 361.685 592.57 362.728 601.523 363.115C603.324 363.194 605.127 363.24 606.929 363.277C607.096 361.69 607.984 360.234 609.908 359.361C613.852 357.573 617.008 356.767 621.338 356.94C625.301 357.096 629.278 357.504 633.181 358.218C640.268 359.517 647.386 362.466 652.57 367.588C664.567 379.441 662.741 398.48 653.471 411.391C634.319 438.068 599.364 439.306 569.426 438.958L566.663 438.922C539.404 438.533 500.404 442.597 488.02 411.583C483.466 400.178 484.098 386.959 489.674 376.021C496.325 362.974 510.325 356.178 524.347 354.477ZM609.495 398.895L609.251 398.905C596.683 399.389 584.117 399.73 571.542 399.952C571.918 403.181 572.302 406.412 572.741 409.634C573.086 412.17 573.455 414.703 573.839 417.233C574.002 418.304 574.598 419.967 574.43 421.028L574.369 421.447V421.447C575.014 421.739 575.6 422.21 576.036 422.892C576.188 423.128 576.298 423.367 576.407 423.604C586.17 423.68 596.677 423.491 606.629 421.716L606.649 421.5V421.5C606.83 420.229 607.359 419.373 608.061 418.786C608.761 414.732 608.697 410.411 608.967 406.389C609.136 403.89 609.318 401.393 609.495 398.895ZM561.938 400.124C552.879 400.278 543.816 400.396 534.759 400.286L530.648 400.222V400.222C531.516 404.88 532.461 409.523 533.246 414.212C534.066 419.099 529.764 422.206 526.041 422.08C526.459 422.149 526.876 422.22 527.294 422.278C538.926 423.923 551.004 423.487 562.809 423.474C562.174 419.767 562.431 415.585 562.336 412.491L562.318 412.012C562.137 408.047 562.01 404.085 561.938 400.124ZM500.406 399.269C500.72 401.691 501.332 404.061 502.247 406.268C506.114 415.593 514.979 419.944 524.358 421.776C522.731 421.214 521.439 419.864 521.112 417.552C520.299 411.801 520.007 405.955 519.985 400.117C513.448 400.056 506.867 399.916 500.406 399.269ZM643.585 397.278C638.931 398.376 633.522 397.873 628.956 398.08C624.678 398.274 620.399 398.444 616.121 398.617C616.322 401.537 616.519 404.457 616.733 407.375C617.008 411.148 617.034 415.134 617.756 418.891C626.366 415.952 634.08 411.24 639.868 403.706C641.31 401.828 642.601 399.625 643.585 397.278ZM522.38 369.775C514.632 371.61 507.3 375.485 503.36 382.574C501.021 386.781 499.992 391.767 500.19 396.68C506.737 395.918 513.398 395.629 520.027 395.39C520.049 394.196 520.077 393.004 520.113 391.814L520.215 388.764C520.396 382.948 520.486 375.644 522.38 369.775ZM562.479 370.485L559.069 370.102C549.596 369.022 540.128 367.889 530.655 368.539C529.284 368.633 527.892 368.783 526.497 368.987C528.171 375.029 528.031 382.126 528.73 388.107C529 390.42 529.342 392.713 529.72 394.998L531.363 394.921V394.921C541.529 394.37 551.704 394.032 561.877 393.628C561.876 391.718 561.886 389.807 561.917 387.895L561.955 385.983C562.07 381.099 561.755 375.598 562.479 370.485ZM610.049 369.709C600.127 371.311 589.873 371.651 580.127 371.663C576.235 371.668 572.344 371.429 568.456 371.084C568.709 373.155 568.841 375.249 569.031 377.291C569.415 381.417 569.854 385.536 570.331 389.652L570.757 393.253V393.253C583.261 392.686 595.764 392.074 608.265 391.439L610.029 391.344V391.344L610.523 384.423C610.86 379.808 611.23 375.194 611.753 370.6L611.361 370.459V370.459C610.9 370.269 610.463 370.008 610.049 369.709ZM614.358 371.427C614.904 377.953 615.207 384.505 615.609 391.041L623.85 390.601C625.224 390.526 626.597 390.45 627.97 390.371C633.311 390.063 640.173 388.446 645.453 389.954C645.856 385.155 644.484 380.479 640.152 377.254C632.547 371.591 622.864 373.607 614.358 371.427ZM586.201 313.094C598.473 306.066 629.264 298.883 631.214 320.968C632.111 331.131 624.555 339.551 615.732 343.309L615.401 343.448C607.126 346.85 592.459 350.692 585.298 343.315C579.338 337.175 587.243 326.166 594.649 331.196C598.455 333.78 606.466 331.876 610.713 330.646L610.979 330.569C615.562 329.222 621.672 324.911 619.777 319.268C618.1 314.276 610.964 313.364 606.495 313.202C599.824 312.963 593.332 314.512 586.722 315.016C585.675 315.096 585.352 313.58 586.201 313.094ZM637.036 277.581C653.692 276.801 664.053 294.987 660.223 309.888C659.561 312.459 656.685 314.983 653.909 314.694L653.209 314.63C652.854 314.595 652.497 314.551 652.169 314.46C649.533 313.73 647.17 310.988 647.362 308.146L647.413 307.318C647.801 300.279 647.038 292.169 638.673 290.464C631.578 289.018 627.617 295.847 627.533 302.133C627.517 303.249 626.263 304.028 625.276 303.428C620.147 300.307 619.259 294.098 621.218 288.751C623.701 281.976 629.915 277.914 637.036 277.581ZM513.433 281.481C525.554 277.437 538.631 283.898 544.5 294.614C546.559 295.21 548.615 296.797 548.329 299.227C547.916 302.723 547.294 304.927 544.87 307.578C541.078 311.726 533.977 309.605 532.402 304.5L532.335 304.269C530.545 297.67 523.281 293.316 516.664 295.626C508.934 298.324 509.158 306.488 503.736 311.244C503.099 311.803 502.335 311.892 501.571 311.523C495.812 308.74 496.847 300.364 498.9 295.57C501.593 289.279 506.827 283.684 513.433 281.481ZM496.925 244.674C506.747 234.652 532.359 224.954 539.078 243.461C540.358 246.986 537.633 251.739 533.963 252.47C527.953 253.666 522.621 251.057 516.651 251.525C511.818 251.906 506.777 253.521 502.913 256.515C492.211 264.807 489.857 278.832 482.4 289.386C482.037 289.9 481.332 289.684 481.265 289.078C479.567 273.713 486.167 255.65 496.925 244.674ZM625.02 234.808C631.538 232.506 638.919 232.703 645.471 234.745C652.071 236.803 658.13 240.711 662.798 245.817C664.916 248.135 666.876 250.693 668.448 253.416C669.283 254.859 670.161 257.84 671.11 259.615C676.245 262.58 678.439 269.335 673.843 274.14L673.635 274.351L673.02 274.961C670.549 277.407 666.823 278.467 663.45 277.49C655.902 275.306 654.985 269.361 652.372 263.051C650.646 258.883 647.689 255.195 644.104 252.486C635.631 246.086 621.738 244.047 611.537 247.063C610.994 247.224 610.356 246.532 610.743 246.03C612.676 243.526 613.79 241.471 616.378 239.451C619.005 237.401 621.872 235.92 625.02 234.808Z" fill="black"/>
<defs>
<filter id="filter0_d_5_19144" x="-4" y="434.512" width="1133.39" height="843.488" filterUnits="userSpaceOnUse" color-interpolation-filters="sRGB">
<feFlood flood-opacity="0" result="BackgroundImageFix"/>
<feColorMatrix in="SourceAlpha" type="matrix" values="0 0 0 0 0 0 0 0 0 0 0 0 0 0 0 0 0 0 127 0" result="hardAlpha"/>
<feOffset dy="4"/>
<feGaussianBlur stdDeviation="2"/>
<feComposite in2="hardAlpha" operator="out"/>
<feColorMatrix type="matrix" values="0 0 0 0 0 0 0 0 0 0 0 0 0 0 0 0 0 0 0.25 0"/>
<feBlend mode="normal" in2="BackgroundImageFix" result="effect1_dropShadow_5_19144"/>
<feBlend mode="normal" in="SourceGraphic" in2="effect1_dropShadow_5_19144" result="shape"/>
</filter>
</defs>
</svg>
