<svg class="rellax" viewBox="0 0 1645 2996" fill="none" xmlns="http://www.w3.org/2000/svg">
  <g clip-path="url(#clip0_9_19249)">
    <path fill-rule="evenodd" clip-rule="evenodd" d="M1118.81 1511.06C1119.74 1515.69 1121.15 1520.7 1122.62 1525.2C1115.31 1532.23 1104.97 1541.65 1097.56 1548.46C1104.89 1503.14 1082.57 1461.3 1068.9 1418.43C1074.06 1411.82 1092.01 1405.06 1091.43 1397.73C1090.04 1370.58 1088 1340.28 1085.05 1306.3C1075.08 1200.16 1065.15 1089.48 1088.7 983.027C1090.31 971.456 1092.75 959.288 1108.27 959.019C1154.11 1141.46 1116.96 1325.14 1117.97 1508.73L1116.64 1509.92L1118.81 1511.06ZM1293.26 2985.14C1302.93 2981.74 1314.95 2977.51 1316.62 2970.66C1319.38 2951.92 1317.47 2933.5 1315.45 2914.01C1312.26 2880.56 1312.58 2854.56 1303.55 2818.55C1293.89 2785.1 1285.66 2758.96 1295.09 2724.38C1295.84 2714.08 1287.79 2703.61 1282.47 2693.98C1274.94 2679.92 1271.12 2665.29 1265.14 2650.88C1276.89 2648.83 1289.09 2646.01 1300.37 2642.52L1302.27 2649.34C1302.68 2650.84 1303.83 2651.6 1305.67 2651.6C1306.81 2651.6 1309.73 2651.05 1310.16 2648.61C1308.39 2622.27 1305.82 2596.07 1303.13 2569.31C1275.17 2311.58 1232.83 2099.12 1161.72 1887.23C1144.65 1837.6 1127.2 1785.95 1127.08 1732.03C1136.79 1729.95 1147.6 1728.75 1157.5 1730.12C1228 1713.78 1214.07 1564.63 1211.26 1519.99C1216.23 1518.5 1221.8 1516.38 1225.93 1513.55L1227.59 1514.37C1297.61 1340.61 1268.86 1053.32 1252.84 860.183C1242.33 790.76 1257.11 665.356 1195.56 631.05C1145.86 613.45 1096.38 603.558 1044.44 591.951C1034.83 586.43 1022.96 583.279 1012.22 579.706L1017.77 571.912C1025.04 561.667 1024.07 541.573 1014.56 534.512C1008.72 534.836 1000.5 540.707 994.916 543.464C986.881 526.85 979.443 509.472 974.105 489.509L972.186 490.196C966.569 433.73 893.352 423.875 852.07 442.744C807.005 467.482 830.476 523.444 809.987 563.842L802.561 553.943C791.093 553.731 766.836 568.765 760.995 574.408C756.813 576.357 759.838 589.476 759.229 594.753C698.774 608.441 616.023 612.199 596.806 680.053C564.836 807.646 569.331 938.452 533.056 1065.59C495.081 1168.65 439.306 1294.76 438.837 1389.14C437.754 1406.83 435.373 1506.87 450.015 1502.85L459.679 1512.49C446.513 1533.51 456.966 1564.96 462.009 1589.84C474.435 1642.63 498.717 1699.52 550.582 1674.22C606.365 1982.23 746.567 2292.94 698.74 2610.63C698.167 2612.49 699.328 2614.53 701.319 2613.72L703.674 2612.63C709.757 2614.51 717.476 2615.17 723.829 2616.59C718.423 2636.85 715.524 2656.85 712.718 2679.25C709.315 2681.28 710.903 2686.65 710.73 2689.9C659.978 2687.46 631.514 2740.61 595.117 2769.83C571.085 2791.27 543.716 2811.69 513.765 2830.51C489.015 2844.57 468.132 2860.67 471.892 2887.23C471.535 2887.19 463.898 2886.01 463.524 2885.97C452.011 2924.28 489.814 2932.2 528.746 2936.82C623.884 2946.39 705.211 2925.24 815.358 2885.19C828.867 2886.79 839.395 2866.71 841.192 2853.09C842.971 2843.96 837.914 2834.68 841.774 2824.86C855.056 2796.64 861.97 2721.93 843.244 2688.41C836.671 2680.82 828.241 2673.81 829.334 2660.69C829.64 2647.56 830.876 2634.44 829.764 2621.53C852.272 2619.36 874.553 2614.51 894.189 2606.64C897.665 2607.98 901.613 2606.33 901.856 2601.98C905.624 2541.93 910.134 2476.31 911.109 2414.83C915.634 2281.03 885.035 2150.47 861.617 2020.7C859.992 1979.07 852.307 1938.85 849.885 1897.2C847.279 1857.7 846.819 1819.03 844.552 1779.59L858.066 1776.66C970.262 2065.91 1058.12 2355.39 1119.62 2638.65C1118.23 2639.84 1114.28 2641.18 1114.44 2643.59C1114.49 2644.88 1114.46 2644.97 1115.34 2645.1C1130.2 2648.08 1144.9 2650.27 1159.62 2651.98C1155.47 2687.33 1177.62 2728.18 1158.02 2761.28C1152.81 2769.26 1152.59 2770.93 1155.78 2776.42C1127.23 2829.56 1109.53 2873.78 1098.06 2921.29L1090.68 2915.04C1079.96 2922.82 1079.74 2937.52 1079.51 2953.05C1080.27 2962.1 1075.85 2971.58 1082.62 2979.19C1098.91 2998.24 1155.7 3005.73 1187.45 3005.84C1225.12 3005.85 1259.74 2999 1293.26 2985.14Z" fill="#EDB98A"></path>
    <path fill-rule="evenodd" clip-rule="evenodd" d="M1159.1 2753.97C1158.51 2756.4 1159.7 2768.53 1159.1 2770.71C1152.87 2791.58 1135.25 2800.23 1127.28 2820.32L1123.54 2829.75C1113.47 2855.2 1103.72 2880.77 1097.69 2907.77L1096.68 2912.27C1096.68 2912.27 1077.21 2930.94 1076.67 2943.85C1076.67 2943.85 1074.6 2976.71 1080.87 2981.45C1126.62 3012.63 1188.47 3011.73 1241.34 3003.54C1262.42 2999.7 1283 2993.28 1302.54 2984.49C1309.92 2981.98 1315.44 2979.33 1318.82 2974.98C1321.69 2971.29 1322.88 2966.38 1322.41 2959.56C1323.63 2947.99 1322.74 2936.94 1321.72 2925.91L1321.24 2920.76C1320.39 2911.45 1319.65 2902.12 1320.11 2892.74C1318.69 2856.36 1307.16 2820.23 1299 2784.72L1290.23 2770.71C1290.23 2770.71 1238.02 2731.28 1219.93 2731.33L1218.18 2731.33C1200.45 2731.23 1159.1 2753.97 1159.1 2753.97ZM826.911 2679.76C816.686 2714.14 801.465 2731.34 781.246 2731.34C750.917 2731.34 746.897 2691.31 723.124 2691.31C723.124 2691.31 703.853 2690.33 683.19 2688.72C662.685 2696.05 645.779 2712.72 629.558 2729.79L620.829 2739.01C611.776 2748.56 602.783 2757.81 593.395 2765.35C568.259 2787.78 541.051 2807.74 512.544 2825.66L510.295 2826.99C499.22 2833.56 487.099 2841.32 478.744 2851.38C472.666 2858.71 468.612 2867.28 468.718 2877.59L468.754 2881.12C468.754 2881.12 459.123 2890.31 459.032 2894.2L459.001 2895.51C458.974 2896.56 464.156 2918.84 472.535 2924.39C484.318 2932.21 527.664 2939.09 529.171 2939.33C625.24 2949.62 722.49 2923.98 811.546 2888.94L815 2887.58C815.244 2887.62 815.491 2887.66 815.74 2887.69C822.894 2888.64 829.048 2884.82 833.916 2879.31C840.643 2871.68 845.022 2860.66 846.069 2852.11C846.864 2848.51 844.759 2829.88 846.231 2825.3C858.616 2797.14 860.244 2766.51 858.471 2736.5C858.934 2701.22 851.257 2689.99 844.535 2681.84L842.804 2679.76L826.911 2679.76Z" fill="white"></path>
    <path fill-rule="evenodd" clip-rule="evenodd" d="M1068.41 1423.31L1061.62 1428.1C1055.29 1432.57 1048.88 1437.14 1041.71 1442.27L1034.27 1447.62L993.103 1477.33C929.846 1522.9 895.642 1546.26 855.516 1570.22L852.189 1572.2L851.758 1572.23C844.788 1572.62 838.692 1569.67 828.96 1562.37L827.958 1561.61L824.096 1558.66L823.176 1557.97L819.679 1555.38L789.82 1533.32C773.9 1521.56 762.978 1513.41 752.837 1505.69L746.919 1501.17L739.341 1495.33L737.781 1495.91C735.752 1496.65 733.493 1496.49 731.858 1495.51L731.639 1495.37L729.519 1493.95L726.813 1496.84L725.101 1498.66C721.396 1502.58 717.662 1506.44 712.647 1511.52L711.466 1512.72L696.946 1527.35L692.608 1531.74C687.025 1537.41 682.904 1541.68 678.846 1546.03L677.74 1547.21L675.536 1549.6L675.125 1549.98L674.607 1550.48C672.803 1552.22 671.092 1554.09 668.693 1556.89L667.989 1557.72L665.635 1560.51L664.419 1561.93C656.882 1570.69 652.368 1574.47 646.097 1576.31L645.765 1576.41L645.204 1576.56L644.985 1576.59C640.493 1577.33 637.359 1575.96 633.413 1571.87L633.13 1571.57L632.85 1571.27L630.282 1568.56C619.944 1557.7 610.338 1548.12 594.481 1532.78L589.033 1527.52L567.005 1506.33L562.535 1502C560.939 1500.45 559.445 1499 557.987 1497.58L555.878 1495.51L549.771 1489.5L547.691 1492.09C546.411 1493.69 543.754 1494.27 541.981 1493.28L541.801 1493.18L537.104 1490.16L537.18 1495.74C537.217 1498.45 537.293 1501.21 537.406 1504.02L537.537 1507.02C538.079 1518.52 539.056 1528.98 541.121 1546.55L541.339 1548.4L543.998 1570.48L544.478 1574.8C551.144 1633.95 562.037 1695.42 577.484 1764.29L578.418 1768.44C588.626 1813.65 598.136 1851.75 616.167 1920.39L620.387 1936.43L634.505 1989.85C650.51 2050.55 660.043 2087.98 669.474 2127.99L670.051 2130.45L671.269 2135.65L672.489 2140.9C683.994 2190.66 693.063 2235.86 700.04 2279.3L700.405 2281.58L701.113 2286.07C718.762 2399.04 721.991 2500.59 708.619 2599.23L708.209 2602.22L707.808 2605.1L710.675 2605.59C767.929 2615.36 822.342 2618.99 874.597 2615.84L876.912 2615.7L878.982 2615.09C882.473 2614.04 885.888 2612.91 889.22 2611.71L890.878 2611.11L892.965 2610.34L892.763 2606.97L892.64 2604.82C890.744 2570.89 891.304 2541.55 894.265 2481.93L894.553 2476.19L895.925 2449.43C896.589 2436.27 897.027 2426.89 897.387 2417.8L897.623 2411.61L897.862 2404.76L897.967 2401.44C899.503 2351.42 898.254 2311.79 893.061 2274.25L892.712 2271.78L892.367 2269.41L891.872 2264.61C888.042 2228.09 883.144 2196.75 872.513 2137.55L870.729 2127.64L866.107 2102.14C854.098 2035.56 848.675 2000.87 844.868 1961.29L844.624 1958.73L844.252 1954.7L842.822 1935.14C840.444 1902.06 839.46 1881.32 839.615 1859.71L839.636 1857.39C839.946 1830.04 842.361 1805.78 847.419 1783.13L847.808 1781.41L847.807 1781.39L848.443 1778.72L848.465 1778.66L849.49 1776.18L847.96 1774.76C838.214 1765.72 829.435 1756.19 821.882 1746.36C817.538 1740.62 827.604 1732.17 832.655 1736.95L832.806 1737.1L842.826 1747.33L837.756 1733.94C834.971 1726.58 832.195 1719.16 829.424 1711.67L827.762 1707.17L827.198 1705.63L829.148 1709.81C886.791 1833.7 938.687 1970.61 987.28 2123.64L988.752 2128.29L990.46 2133.7C1036.65 2280.25 1077.97 2434.22 1125.73 2631.44L1127.62 2639.24L1129.43 2639.65L1132.03 2640.24C1174.09 2649.52 1216.78 2651.94 1279.26 2650.65L1281.51 2650.6L1283.53 2650.13C1286.29 2649.49 1289.01 2648.81 1291.69 2648.09L1293.69 2647.55L1297.95 2646.37L1297.53 2639.57C1283.06 2410.29 1238.97 2173.5 1166.81 1916.26L1164.61 1908.46L1163.35 1903.87L1156.21 1878.31L1154.82 1873.3C1144.06 1834.36 1139.23 1813.2 1136.08 1788.41L1135.99 1787.63L1135.95 1787.43C1132.79 1771.05 1130.91 1755.43 1130.38 1740.2L1130.33 1738.63L1130.24 1735.54L1127.16 1735.72C1110.61 1736.67 1090.48 1727.41 1082.23 1714.78L1081.99 1714.4L1080.22 1711.6L1077.61 1713.63C1071.9 1718.07 1063.26 1713.73 1058.24 1705.37L1058.1 1705.12L1057.85 1704.63C1053.63 1696.1 1052.07 1686.27 1052.77 1674.93L1052.82 1674.17L1052.88 1673.41C1053.63 1663.89 1055.71 1654.27 1059.5 1641.12L1061.06 1635.7L1056.4 1636.44C1046.7 1637.96 1035.41 1634.26 1028.31 1627.38C1021.14 1620.43 1019.52 1611.76 1024.77 1602.99L1024.98 1602.63L1025.21 1602.27L1026.76 1600.92L1028.33 1599.57C1033.98 1594.73 1039.84 1590.03 1048.63 1583.19L1051.16 1581.23L1061.88 1572.94C1077.18 1561.08 1085.92 1553.91 1094.83 1545.63L1095.25 1545.23L1097.32 1543.29L1097.38 1542.08C1098.2 1525.07 1095.99 1507.8 1091.02 1488.75L1090.58 1487.09L1090.01 1484.99C1086.71 1472.97 1083.08 1462.4 1075.89 1443.19L1068.41 1423.31Z" fill="#57B4EA"></path>
    <path fill-rule="evenodd" clip-rule="evenodd" d="M460.444 1537.45C471.642 1575.11 481.919 1630.86 510.434 1658.58C519.635 1665.91 530.854 1662.7 541.394 1660.88C534.165 1617.08 528.864 1572.9 524.254 1528.73C501.804 1524.12 480.164 1516.15 460.064 1505.15C454.624 1514.27 458.024 1528.14 460.444 1537.45V1537.45ZM546.834 1570.23C584.734 1916.59 760.272 2248.61 711.034 2602.71C770.078 2612.79 830.137 2616.99 889.904 2611.78C882.707 2502.4 905.964 2382.65 889.243 2269.86C878.554 2164.12 850.704 2060.86 841.114 1955C836.849 1896.49 831.534 1835.39 845.424 1777.91C845.534 1777.62 845.654 1777.33 845.774 1777.04C836.261 1768.22 827.271 1758.58 819.344 1748.25C812.584 1739.32 827.304 1727.42 834.804 1735.08C824.458 1707.75 814.515 1680.29 804.874 1652.71C954.001 1953.66 1049.52 2304.18 1129.95 2636.81C1184.05 2649.13 1239.73 2648.83 1294.85 2647.35C1279.75 2397 1229.6 2150.34 1161.57 1909.33C1146.35 1853.61 1127.57 1796.93 1130.92 1738.4C1113.17 1741.17 1088.87 1731.27 1079.3 1716.08C1070.59 1722.85 1059.91 1714.54 1055.32 1706.65C1044.72 1685.96 1050.58 1660.69 1056.72 1639.48C1035.07 1642.89 1007.96 1622.81 1022.77 1600.37C1045.67 1580.29 1071.79 1563.18 1094.23 1542.02C1096.15 1502.34 1080.78 1465.31 1066.81 1428.08C996.255 1477.81 927.078 1531.32 852.986 1575.22C840.246 1576.51 829.956 1566.87 820.394 1559.83C793.104 1539.58 765.564 1519.6 738.674 1498.8C735.724 1499.89 732.334 1499.62 729.824 1497.94C712.652 1516.33 694.503 1533.32 677.514 1551.8C667.309 1561.23 659.937 1575.96 645.695 1579.57C639.034 1580.79 634.794 1578.03 630.524 1573.41C604.612 1545.99 576.734 1520.53 549.884 1494.05C547.764 1496.69 543.304 1497.88 540.034 1495.78C540.374 1520.64 543.924 1545.52 546.834 1570.23V1570.23ZM725.724 2687.15C750.497 2694.3 754.422 2733 783.593 2729.22C802.482 2725.24 817.715 2708.88 822.554 2690.48C821.104 2689.56 820.124 2687.95 820.274 2685.63C821.514 2666.76 822.764 2647.89 824.004 2629.02C791.182 2630.84 758.225 2628.25 725.624 2623.75C726.804 2632.71 727.274 2641.75 727.534 2650.88C727.068 2662.49 730.468 2676.5 725.724 2687.15V2687.15ZM835.154 2678.66C834.344 2677.49 833.604 2676.28 832.974 2674.98C832.874 2676.48 832.774 2677.98 832.684 2679.47C833.464 2679 834.294 2678.74 835.154 2678.66V2678.66ZM669.534 2709.2C652.694 2720.67 639.574 2737.01 625.234 2751.28C594.735 2781.64 560.913 2808.68 524.704 2831.92C505.849 2843.64 466.004 2861.37 481.783 2888.88C493.548 2906.21 524.393 2898.13 529.254 2907.85C596.357 2910.61 661.999 2892.26 725.784 2873.47C758.164 2862.89 792.043 2856.72 823.434 2843.27C853.521 2816.91 853.616 2758.95 849.476 2721.78C847.833 2712.99 845.392 2676.99 832.544 2681.52C832.523 2685.12 832.153 2689.97 828.264 2690.98C828.204 2691.26 828.154 2691.55 828.084 2691.83C828.824 2691.59 829.804 2692.13 829.444 2693.02C819.765 2721.84 787.855 2754.29 756.703 2734.09C742.864 2724.35 736.804 2705.5 720.304 2699.39C703.014 2692.98 684.084 2699.29 669.534 2709.2V2709.2ZM466.264 2887.04C465.834 2887.25 465.384 2887.35 464.924 2887.36C463.604 2890.74 464.254 2904.51 464.504 2906.88C468.572 2927.6 501.196 2931.04 518.493 2934.17C579.266 2943.75 641.076 2937.06 700.364 2921.78C729.304 2914.61 758.084 2906.32 786.174 2896.33C811.132 2888.74 842.004 2876.12 838.904 2844.46C825.003 2863.24 780.508 2868.8 758.185 2876.56C688.033 2897.86 616.859 2920.79 542.824 2921.52C531.608 2921.04 516.108 2924.17 507.694 2915.72C489.854 2913.17 471.344 2903.29 466.264 2887.04V2887.04ZM1167.14 2682.88C1172.89 2701.03 1179.49 2719.67 1179.67 2738.87C1213.13 2718.99 1255.09 2738.29 1282.81 2760.06C1280.88 2746.47 1289.26 2733.67 1286.98 2720.31C1278.51 2700.16 1267.15 2679.73 1271.18 2656.95C1234.06 2663.29 1196.35 2662.9 1159.1 2659.01C1162.02 2666.87 1164.54 2674.87 1167.14 2682.88V2682.88ZM1154.34 2793.31C1147.75 2806.25 1143.13 2823.41 1130.48 2831.57C1123.43 2857.66 1115.5 2883.51 1109.36 2909.83C1106.93 2922.36 1103.24 2935.33 1105.06 2948.23C1107.96 2949.03 1109.99 2949.65 1111.59 2951.74C1172.92 2964.81 1240.34 2966.87 1297.02 2936.51C1316.04 2893.99 1301.11 2844.2 1294.64 2800.16C1294.25 2785.74 1284.61 2780.69 1283.46 2766.94C1253.06 2749.44 1205.7 2726.49 1176.87 2757.88C1172.87 2766.79 1170.18 2779.08 1159.88 2782.45C1157.96 2786.05 1156.13 2789.68 1154.34 2793.31V2793.31ZM1104.09 2948.27C1104.1 2948.29 1104.11 2948.31 1104.14 2948.34C1104.23 2948.33 1104.23 2948.3 1104.09 2948.27V2948.27ZM1085.02 2956.19C1085.17 2953.52 1086.5 2950.86 1088.68 2949.28C1087.65 2939.45 1089.6 2929.28 1091.68 2919.68C1081.38 2930.9 1085.78 2948.66 1084.08 2962.63C1084.22 2968.2 1081.52 2975.3 1087.99 2978.17C1108.21 2992.15 1132.72 2998.67 1156.88 3001.48C1209.59 3007.52 1264.39 2997.83 1311.48 2973.32C1317.88 2964.64 1315.67 2942.36 1316.4 2931.14C1312.06 2967.16 1224.23 2977.12 1194.36 2977.42C1177.75 2977.53 1085.2 2974.09 1085.02 2956.19V2956.19ZM1140.71 1715.89C1147.72 1715.19 1154.69 1715.68 1161.63 1716.68C1202.71 1688.77 1209.19 1574.28 1215.63 1525.95C1186.24 1533.46 1155.11 1531.44 1126.57 1521.55C1126.04 1526.82 1120.02 1529.54 1116.36 1525.98C1097.01 1560.43 1068.06 1588.01 1038.19 1612.66C1038.54 1611.51 1038.79 1613.62 1038.35 1612.82C1042.16 1621.54 1056.13 1617.02 1062.73 1623.09C1066.97 1626.25 1067.86 1631.78 1065.16 1635.47C1072.31 1655.22 1060.95 1679.34 1071.64 1698.07C1074.05 1700.86 1077.17 1702.87 1079.24 1706C1093.48 1696.25 1106.45 1716.88 1120.86 1717.78C1120.76 1717.78 1120.66 1717.78 1120.55 1717.77C1122.77 1718.02 1126.33 1717.9 1128.28 1717.62C1132.42 1716.98 1136.54 1716.31 1140.71 1715.89V1715.89ZM1114.23 1025.78C1111.21 1006.09 1107.69 986.522 1103.12 967.142C1097.61 968.102 1096.38 980.723 1095.68 984.442C1072.09 1091.18 1082.31 1201.03 1092.41 1308.76C1094.86 1337.65 1096.88 1366.59 1098.46 1395.55C1100.5 1408.87 1085.19 1413.39 1077.01 1420.68C1088.38 1457.29 1108 1492.71 1105.68 1531.7C1108.73 1528.9 1111.75 1526.07 1114.75 1523.22C1113.99 1520.77 1113.34 1518.32 1112.79 1515.85C1109.06 1513.91 1107.87 1508.54 1111.07 1505.71C1109.84 1346.06 1139.8 1185.05 1114.23 1025.78V1025.78ZM820.698 724.273C815.028 714.182 800.02 727.296 809.449 734.613C816.013 739.929 825.11 731.199 820.698 724.273V724.273ZM792.947 841.656C786.892 833.78 774.746 842.9 780.037 851.042C786.221 863.883 798.599 851.199 792.947 841.656V841.656ZM773.508 944.533C761.379 944.567 764.158 965.123 775.609 962.304C785.358 959.996 783.752 944.343 773.508 944.533V944.533ZM763.568 1068.48C760.759 1058.97 746.396 1061.48 746.498 1071.26C746.862 1084.47 766.413 1080.48 763.568 1068.48V1068.48ZM740.028 1188C736.036 1176.05 720.693 1182.24 721.979 1193.81C720.306 1200.5 733.265 1213.99 735.888 1203.06C739.388 1198.84 741.038 1193.42 740.028 1188V1188ZM715.928 1325.85C715.898 1325.81 715.868 1325.77 715.838 1325.73C707.304 1329.75 714.69 1348.04 722.918 1341.32C730.901 1336.45 725.376 1321 715.928 1325.85V1325.85ZM704.698 1437.76C694.742 1447.55 710.139 1463.05 719.959 1453.02C729.927 1443.25 714.539 1427.76 704.698 1437.76V1437.76ZM458.134 1504.1C458.004 1504.39 457.864 1504.68 457.704 1504.95C457.964 1504.73 458.224 1504.51 458.484 1504.29C458.374 1504.23 458.254 1504.17 458.134 1504.1V1504.1ZM450.124 1276.59C466.375 1212.56 492.521 1151.61 517.975 1090.85C545.481 1010.18 553.546 924.737 563.374 840.553C568.78 793.057 574.625 745.624 585.564 699.022C594.861 612.15 683.087 602.679 752.274 589.213C752.177 581.795 749.896 573.357 757.335 568.613C764.164 561.676 800.623 540.117 807.824 549.243C810.652 542.365 812.035 534.733 813.374 527.392C814.274 524.495 814.646 514.503 817.793 514.582C818.467 534.141 826.765 562.773 810.114 577.463C820.108 592.696 828.441 611.153 841.614 623.283C841.604 623.272 841.594 623.263 841.584 623.253C842.244 623.682 842.914 624.072 843.604 624.442C843.444 624.312 844.394 624.663 845.174 624.913C846.964 625.254 849.925 624.599 851.754 623.772H851.734C897.091 597.992 941.476 570.383 985.384 542.102C979.108 532.818 970.985 487.309 978.773 481.002C984.219 498.955 989.889 516.968 998.154 533.862C1005.31 529.954 1016.9 522.926 1022.93 532.112C1030.54 544.876 1032.72 563.382 1023.58 576.072C1062.84 591.54 1105.17 596.956 1145.69 609.044C1163.35 613.572 1182.05 616.942 1198.62 624.793C1248 652.189 1248.04 719.687 1253.46 769.401C1267.35 1011.39 1311.43 1261.55 1242.41 1498.93C1239.75 1506.22 1235.83 1513.22 1232.78 1520.39C1231.57 1523.23 1228.43 1523.14 1226.36 1521.6C1224.02 1522.99 1221.45 1524.1 1218.76 1525C1223.28 1586.72 1229.41 1699.47 1169.84 1736.27C1165.19 1738.46 1161.03 1737.7 1156.7 1737.16C1149.75 1736.26 1141.52 1736.56 1134.32 1737.91C1143.01 1852.4 1200.66 1957 1222.98 2069.18C1270.82 2258.87 1301.73 2452.76 1317.28 2647.73C1317.84 2659.82 1298.91 2663.17 1295.63 2651.31C1288.79 2653.29 1281.85 2654.94 1274.82 2656.28C1278.49 2665.84 1281.53 2675.5 1285.76 2684.82C1290.38 2695.35 1298.79 2705.05 1301.43 2716.32C1304.59 2734.38 1292.84 2751.28 1299.36 2769.35C1300.59 2789.55 1309.77 2808.56 1312.96 2828.57C1317.94 2853.36 1321.72 2879.04 1320.42 2904.38C1325.58 2922.92 1325.33 2942.14 1324.61 2960.92C1324.23 2967.09 1324.55 2974.9 1319.87 2979.65C1309.55 2987.91 1295.74 2991.43 1283.69 2996.59C1218.74 3017.87 1137.85 3023.83 1078.26 2985.41C1066.92 2976.41 1074.01 2954.22 1073.13 2941.06C1072.73 2931.02 1080.52 2903.23 1094.18 2908.84C1106.15 2862.46 1125.59 2818.52 1148.02 2776.4C1144.44 2770.07 1148.36 2763.86 1151.84 2758.52C1169.1 2731.96 1150.47 2689.58 1152.53 2658.25C1139.65 2656.68 1126.82 2654.6 1114.08 2652.06C1105.37 2650.32 1106.01 2639.49 1111.86 2635.52C1048.26 2343.75 959.637 2057.64 851.654 1779.29C853.176 1809.6 854.433 1839.88 855.443 1870.24C856.792 1920.63 866.384 1970.27 868.726 2020.53C892.537 2150.92 922.775 2281.55 918.222 2415.04C917.194 2477.55 912.884 2539.99 908.964 2602.36C908.633 2609.54 902.219 2615.6 894.854 2614.03C876.414 2621.13 856.924 2625.59 837.214 2627.84C839.216 2650.64 828.884 2667.05 848.845 2684.16C866.308 2711.44 862.178 2767.22 857.557 2798.88C855.494 2808.97 851.944 2818.21 848.294 2827.78C845.535 2836.47 850.268 2845.13 848.253 2854.04C846.275 2870.19 833.054 2894.68 814.554 2892.23C708.998 2932.2 586.71 2968.45 475.684 2931.23C467.964 2927.38 459.914 2922.41 457.144 2913.78C454.778 2906.08 451.586 2876.93 464.924 2879.18C466.395 2839.68 512.234 2827.23 538.363 2805.98C574.864 2780.92 607.07 2750.47 637.573 2718.54C655.163 2700.43 677.253 2683.38 703.654 2683.28C703.577 2680.5 704.434 2678.04 706.184 2676.1L706.194 2676.09C708.503 2658.16 710.995 2639.77 715.364 2622.19C711.706 2621.5 707.931 2621.19 704.364 2620.17C697.261 2623.36 690.31 2616.94 691.935 2609.66C703.97 2533.1 704.119 2455.14 697.033 2378.1C675.211 2141.09 588.899 1916.64 545.324 1683.67C487.536 1704.31 466.057 1634.32 455.295 1591.49C450.104 1565.4 438.91 1533.28 453.864 1508.87C410.13 1526.31 439.205 1300.28 450.124 1276.59V1276.59Z" fill="black"></path>
    <path fill-rule="evenodd" clip-rule="evenodd" d="M916.199 58.7062C871.427 58.7062 817.71 80.4107 813.142 80.8448L813.019 80.8514C810.616 80.8514 801.227 88.0047 784.851 102.311L802.588 136.905L801.153 138.276C794.284 144.861 788.42 150.863 783.792 155.595C746 194.229 739.208 345.919 748.114 398.818C757.02 451.717 773.516 503.48 850.315 503.48C927.113 503.48 1012.55 457.303 1025.71 442.922C1034.49 433.336 1044.35 428.743 1055.28 429.144C1055.73 428.577 1056.18 428.011 1056.62 427.447L1058.23 427.219C1073.37 425.027 1084.21 422.076 1090.77 418.368C1103.57 411.124 1117.64 373.045 1117.64 364.657C1117.64 356.352 1138.66 295.94 1139.08 289.547L1139.08 289.37C1139.08 284.025 1166.53 259.458 1166.53 251.656C1166.53 243.854 1172.07 244.327 1166.53 216.833L1164.93 208.756C1159.04 179.484 1147.51 131.013 1103.57 109.95C1055.28 86.8051 961.423 58.7062 916.199 58.7062Z" fill="#EDB98A"></path>
    <path fill-rule="evenodd" clip-rule="evenodd" d="M1043.33 298.313C1043.33 298.313 1063.5 307.864 1083.67 323.456C1103.83 339.047 1093.88 339.562 1093.88 339.562C1093.88 339.562 1094.74 372.975 1088.53 386.229C1082.31 399.483 1045.5 401.829 1045.5 401.829L1039.27 422.706L1040.13 432.381C1044.93 430.224 1049.98 429.243 1055.29 429.438C1055.74 428.87 1056.19 428.305 1056.63 427.741L1058.24 427.513C1073.37 425.321 1084.22 422.37 1090.77 418.662C1103.58 411.418 1117.65 373.339 1117.65 364.951C1117.65 360.286 1124.28 339.179 1130.17 320.44C1134.76 305.82 1138.9 292.643 1139.08 289.841L1139.09 289.664C1139.09 287.243 1144.72 280.881 1150.88 273.919C1158.32 265.507 1166.54 256.219 1166.54 251.95C1166.54 249.673 1167.01 248.101 1167.54 246.333C1168.83 242.042 1170.46 236.598 1166.54 217.127L1164.93 209.05C1159.05 179.778 1147.52 131.306 1103.58 110.244C1055.29 87.0989 961.43 59 916.206 59C880.939 59 840.121 72.4676 822.148 78.3977C817.304 79.9958 814.12 81.0465 813.15 81.1387L813.027 81.1453C810.624 81.1453 801.235 88.2985 784.859 102.605L789.019 110.72C843.101 112.299 932.036 117.124 970.857 131.857C1028.58 153.764 1043.33 298.313 1043.33 298.313Z" fill="#57B4EA"></path>
    <path fill-rule="evenodd" clip-rule="evenodd" d="M1111.02 108.863C1086.94 83.3012 950.22 43.7632 881.048 52.1443L878.973 52.413C873.453 53.113 868.013 54.173 862.644 55.613C845.29 59.666 827.364 65.803 813.025 76.054C801.054 84.44 763.291 98.135 774.421 120.073C770.294 127.892 768.754 137.552 771.543 145.253C771.894 147.913 772.714 150.363 773.763 152.903C764.946 165.914 757.965 180.628 752.314 194.623C742.439 229.844 736.294 266.498 735.394 302.433C732.4 370.705 739.886 452.256 799.348 496.404C835.269 524.379 891.537 525.319 931.904 490.633C934.195 487.922 944.968 480.606 941.373 479.323C940.303 480.453 939.203 481.553 938.083 482.633C938.134 482.513 938.144 482.393 938.123 482.263L939.177 481.309C941.16 479.474 943.73 476.812 940.803 477.333C940.674 477.483 940.533 477.613 940.394 477.763C939.774 478.135 939.306 478.457 938.941 478.741L938.754 478.892L938.812 478.831C940.498 477.033 941.509 475.2 938.988 476.371L938.654 476.533C937.533 477.713 936.394 478.843 935.234 479.943C935.253 479.813 935.234 479.683 935.163 479.543L936.245 478.498C937.3 477.464 937.139 477.459 936.623 476.623C938.867 473.478 934.678 475.346 934.384 476.573C931.763 475.953 929.462 480.873 927.774 481.473C853.775 538.363 746.388 487.884 748.127 329.359L748.154 326.257C748.662 275.568 752.928 223.469 773.894 177.583C775.933 173.163 778.214 168.863 780.723 164.703C782.453 161.583 784.303 158.543 786.293 155.583C791.864 155.133 797.364 154.113 802.783 152.533C804.644 152.063 806.484 151.543 808.323 150.933C835.203 152.399 861.484 153.994 888.439 155.506L896.859 156.03C919.693 157.498 943.308 159.85 961.734 173.973C979.814 186.831 979.896 212.186 995.373 226.303C1017.44 241.282 1017.6 254.789 1021.85 276.863C1021.54 293.503 1010 317.68 1031.17 324.683C1027.6 329.776 1032.58 327.329 1032.97 325.543C1033.01 325.553 1033.05 325.563 1033.08 325.563C1029.9 331.48 1034.58 327.754 1034.99 325.853C1035.24 325.783 1035.49 325.603 1035.74 325.353C1032.54 330.537 1037.72 326.907 1037.41 325.963C1043.61 316.438 1056.36 314.959 1065.35 317.483C1065.46 317.823 1065.86 317.853 1066.11 317.673C1104.34 325.957 1094.48 405.093 1055.3 397.443C1053.63 397.101 1053.67 397.906 1053.33 397.983C1054.24 395.607 1051.69 396.574 1051.71 397.073L1051.56 397.065C1051.44 397.055 1051.49 397.041 1051.39 397.073C1052.27 392.214 1047.35 399.254 1047.73 399.543C1047.58 399.453 1047.41 399.403 1047.26 399.383L1047.43 398.922C1048.25 396.745 1048.18 397.65 1048.17 396.403C1048.79 394.862 1048.83 395.536 1048.69 394.532C1046.53 392.86 1045.89 397.932 1045.17 398.303C1046.41 396.583 1045.43 395.178 1044.26 396.112C1035.44 414.67 1024.04 432.107 1009.31 445.843C1007.7 447.113 1006.07 448.363 1004.38 449.543C998.119 455 988.509 458.509 982.644 463.343C982.644 463.423 982.683 463.523 982.743 463.623L982.609 463.744V463.744L982.473 463.873L980.433 464.853C979.833 465.363 979.293 465.933 978.814 466.563C978.303 467.153 977.854 467.803 977.473 468.493C977.283 469.333 977.703 469.683 978.503 469.323C978.854 469.203 979.203 469.063 979.553 468.933C979.533 468.963 979.524 468.983 979.503 469.003C979.388 469.177 978.612 470.977 979.507 470.684L979.613 470.643C980.104 470.463 980.593 470.263 981.073 470.073C980.503 470.783 979.984 471.553 979.524 472.203C979.033 472.713 978.734 473.313 978.613 473.993C978.634 474.373 978.843 474.533 979.223 474.483C979.803 474.293 980.373 474.093 980.944 473.883L980.782 474.193C980.378 474.986 979.805 476.317 980.823 475.873C981.694 475.603 982.533 475.293 983.373 474.953C983.444 475.093 983.583 475.143 983.863 475.013C986.533 474.063 989.113 472.903 991.583 471.533C993.753 469.953 995.944 468.403 998.123 466.833C1000.17 465.603 1002.15 464.233 1004.04 462.693C1016.69 454.525 1027.76 444.149 1036.54 432.593C1051.23 445.314 1080.6 433.161 1098.77 423.203C1114.84 414.303 1121.15 397.847 1122.79 380.105C1126.18 356.219 1145.7 348.043 1144.34 295.633C1144.37 295.643 1144.4 295.643 1144.44 295.643C1145.15 295.433 1145.84 295.153 1146.49 294.793C1147.16 294.473 1147.79 294.093 1148.38 293.633L1149.11 292.623V292.623C1149.49 292.413 1149.83 292.193 1150.09 291.973L1150.23 292.147C1150.65 292.662 1150.37 291.887 1150.34 291.733L1151.61 290.008C1154.62 285.903 1157.92 281.297 1160.6 277.613L1160.69 277.763C1160.75 277.876 1160.78 277.957 1160.75 277.993C1167.15 268.805 1173.16 257.707 1174.83 246.963C1176.81 238.687 1176.04 230.159 1174.31 222.493C1166.94 195.648 1142.76 134.9 1111.02 108.863ZM937.476 480.116L937.877 479.759L937.525 480.201C937.34 480.429 937.151 480.634 936.843 480.843C936.863 480.773 936.863 480.703 936.854 480.623C937.058 480.467 937.267 480.297 937.476 480.116ZM881.354 65.633C928.262 61.6 974.399 71.934 1019.16 84.443L1022.25 85.3305C1047.7 92.593 1074.61 99.1282 1096.12 114.673C1126.17 137.69 1141.69 174.306 1155.23 208.113C1167.06 233.231 1161.01 261.554 1143.19 279.093C1141.34 261.664 1138.18 244.745 1133.24 227.962C1132.21 225.34 1132.99 224.481 1130.77 224.139C1127.41 269.367 1143.94 302.783 1111.23 356.385C1097.04 381.677 1113.47 400.183 1073.39 413.492L1072.3 413.906C1063.95 417.057 1054.83 419.544 1046.65 417.783L1047.39 416.591C1048.13 415.364 1048.36 414.768 1047.27 414.243C1047.3 414.183 1047.34 414.123 1047.38 414.053C1048.26 412.393 1049.11 410.713 1049.92 409.013C1050.25 409.123 1050.58 409.203 1050.92 409.293C1050.7 409.703 1050.67 410.113 1051.29 410.253C1053.5 411.009 1055.76 411.312 1058.08 411.17L1058.57 411.133C1061.19 410.973 1062.84 410.496 1064.31 410.053C1064.8 409.973 1065.29 409.893 1065.77 409.793C1070.52 408.741 1075.54 406.065 1078.79 403.413C1115.85 382.365 1112.02 310.716 1066.34 303.943C1065.41 258.831 1043.95 182.723 1008.34 139.736C976.151 100.195 888.277 83.057 827.141 89.1C826.25 89.395 825.359 89.693 824.468 89.994C815.036 90.832 806.047 95.034 796.608 96.986C803.385 91.907 811.073 88.524 818.992 85.649C834.77 75.998 852.858 70.776 870.333 67.093C873.953 66.203 877.623 65.713 881.354 65.633ZM1068.43 340.183C1065.98 338.849 1066.26 340.137 1065.69 339.763C1048.03 338.322 1028.98 353.789 1019.1 366.683C1019.88 367.493 1021.99 365.093 1022.36 364.713C1022.41 364.763 1022.47 364.803 1022.53 364.823L1022.26 365.211C1018.26 370.955 1026.19 364.196 1026.93 362.803C1027.06 362.873 1027.19 362.913 1027.34 362.883C1026.71 363.5 1024.79 365.109 1024.46 366.253L1023.95 366.677C1019.15 370.789 1019.55 373.883 1025 368.043C1024.87 368.313 1024.82 368.563 1024.91 368.763L1024.73 368.888C1022.05 370.762 1019.84 375.984 1025.44 370.623C1024.86 374.539 1031 366.97 1031.19 367.023C1041.81 358.688 1057.44 350.582 1070.76 349.493L1071.22 349.44C1073.67 349.126 1074.82 348.401 1073.96 346.803C1076.97 346.087 1076.27 344.605 1074.84 344.653C1076.97 343.257 1075.06 341.922 1073.82 342.443C1074.67 340.098 1071.27 341.66 1070.96 341.333C1069.2 338.614 1068.73 340.882 1068.43 340.183ZM1105.46 194.833C1096.98 191.725 1071.92 201.029 1073.92 213.351C1075.11 216.18 1079.05 217.801 1081.81 216.204L1085.42 213.78C1091.7 209.574 1097.37 205.886 1104.11 202.218C1107.78 200.397 1109.36 196.531 1105.46 194.833ZM1057.19 176.522L1060.47 174.389C1078.15 162.816 1103.15 145.279 1058.81 163.423C1053.76 165.59 1047.05 166.872 1044.29 171.684C1039.96 180.553 1051.36 181.149 1057.19 176.522ZM1055.2 124.593C1056.62 119.208 1038.96 125.527 1033.82 127.193L1033.04 127.488C1028.04 129.351 1022.31 131.08 1019.32 135.395C1015.81 141.357 1022.91 142.592 1027.3 139.899C1036.31 134.013 1046.18 129.572 1055.2 124.593ZM1010.3 99.5078C1020.24 88.6544 993.641 99.0516 989.657 101.938L989.543 102.023C986.57 104.116 987.173 108.624 989.966 109.948C997.913 110.099 1003.76 103.475 1010.3 99.5078ZM965.075 87.6166C980.875 76.2616 960.062 81.6626 952.833 86.1126C947.906 90.4576 952.981 97.7926 965.075 87.6166Z" fill="black"></path>
    <path fill-rule="evenodd" clip-rule="evenodd" d="M789.868 422.723C793.358 421.581 796.786 420.252 800.23 418.971C817.839 410.126 839.11 408.522 857.577 415.971C866.641 419.627 875.093 426.196 884.188 430.501C886.348 431.307 888.526 432.039 890.728 432.653C892.078 432.183 893.428 431.683 894.768 431.183C904.415 427.547 913.489 423.062 922.299 418.128C923.239 416.805 924.214 415.519 925.262 414.284C918.887 413.379 912.645 411.875 906.998 410.323C889.658 405.573 873.318 397.833 856.038 392.873C839.948 388.243 822.488 385.713 806.328 391.463C798.658 394.193 791.908 398.973 784.448 402.193C780.588 403.853 775.958 405.483 771.448 405.723C774.358 412.693 778.038 419.203 783.068 424.623C785.368 424.133 787.648 423.443 789.868 422.723ZM752.347 368.131C753.891 369.414 760.263 373.554 762.33 376.022C762.864 375.819 763.395 375.611 763.923 375.397C764.832 374.281 766.171 373.791 767.536 373.821C777.065 369.389 785.548 363.126 793.118 355.273C798.498 349.703 804.008 343.873 811.198 340.643C819.668 336.823 827.998 338.583 836.898 339.163C846.368 339.793 855.718 337.103 865.178 338.393C872.098 339.343 878.578 342.273 884.178 346.403C895.608 354.833 903.488 366.673 913.148 376.883C924.108 388.463 937.588 395.863 952.578 399.643C952.758 399.523 952.948 399.403 953.138 399.293C964.188 389.293 974.168 378.003 982.998 365.973C991.618 354.223 1014.35 301.333 1019.84 296.693C1022.12 294.763 1024.62 293.933 1027.01 294.003C1031.34 294.103 1035.34 297.113 1037.13 301.853C1040.17 309.913 1038.65 320.333 1038.41 328.763C1038.11 339.083 1037.43 349.393 1036.35 359.663C1035.28 369.813 1033.86 379.933 1032.09 389.983C1031.2 395.063 1030.21 400.133 1029.12 405.183C1028.78 406.773 1028.35 408.193 1027.83 409.513C1027.3 412.003 1026.73 414.483 1026.12 416.943C1022.14 433.053 1015.86 449.183 1003.87 461.073C991.388 473.463 974.428 481.693 958.678 489.053C943.678 496.063 927.958 502.293 911.828 507.173C897.818 513.523 882.818 518.543 867.758 521.183C851.178 524.093 833.748 524.273 817.738 518.513C809.868 515.683 802.428 511.733 795.678 506.813C786.108 501.843 777.498 495.013 770.448 485.973C757.821 469.772 751.794 450.111 749.157 429.838C748.482 424.649 745.944 404.762 745.745 401.665C745.1 391.666 744.456 381.667 743.811 371.667C743.507 366.948 749.299 365.601 752.347 368.131Z" fill="black"></path>
    <path fill-rule="evenodd" clip-rule="evenodd" d="M896.8 362.799C885.878 356.222 845.055 361.043 812.987 362.799C787.521 364.193 769.333 361.43 763.511 365.348C750.359 374.2 756.747 417.006 779.411 422.86C802.074 428.714 886.087 436.89 900.572 422.86C915.058 408.83 916.395 374.598 896.8 362.799Z" fill="white"></path>
    <path fill-rule="evenodd" clip-rule="evenodd" d="M882.653 351.477C865.511 349.396 848.895 354.644 832.137 357.29C823.289 358.685 814.43 359.728 805.476 360.115C803.675 360.194 801.873 360.24 800.071 360.277C799.903 358.69 799.015 357.234 797.092 356.361C793.148 354.573 789.992 353.767 785.662 353.94C781.699 354.096 777.721 354.504 773.819 355.218C766.732 356.517 759.613 359.466 754.429 364.588C742.432 376.441 744.258 395.48 753.528 408.391C772.681 435.068 807.636 436.306 837.574 435.958L840.336 435.922C867.596 435.533 906.596 439.597 918.98 408.583C923.534 397.178 922.902 383.959 917.326 373.021C910.675 359.974 896.675 353.178 882.653 351.477ZM797.505 395.895L797.749 395.905C810.317 396.389 822.883 396.73 835.458 396.952C835.082 400.181 834.698 403.412 834.258 406.634C833.914 409.17 833.545 411.703 833.161 414.233C832.998 415.304 832.401 416.967 832.57 418.028L832.631 418.447V418.447C831.985 418.739 831.4 419.21 830.964 419.892C830.812 420.128 830.702 420.367 830.592 420.604C820.829 420.68 810.323 420.491 800.37 418.716L800.351 418.5V418.5C800.17 417.229 799.641 416.373 798.939 415.786C798.239 411.732 798.303 407.411 798.033 403.389C797.864 400.89 797.681 398.393 797.505 395.895ZM845.062 397.124C854.121 397.278 863.184 397.396 872.24 397.286L876.352 397.222V397.222C875.484 401.88 874.539 406.523 873.753 411.212C872.934 416.099 877.236 419.206 880.959 419.08C880.541 419.149 880.124 419.22 879.706 419.278C868.074 420.923 855.996 420.487 844.191 420.474C844.826 416.767 844.569 412.585 844.664 409.491L844.682 409.012C844.863 405.047 844.989 401.085 845.062 397.124ZM906.594 396.269C906.279 398.691 905.668 401.061 904.753 403.268C900.886 412.593 892.021 416.944 882.641 418.776C884.269 418.214 885.561 416.864 885.887 414.552C886.701 408.801 886.993 402.955 887.015 397.117C893.552 397.056 900.133 396.916 906.594 396.269ZM763.415 394.278C768.069 395.376 773.477 394.873 778.044 395.08C782.321 395.274 786.601 395.444 790.879 395.617C790.677 398.537 790.481 401.457 790.267 404.375C789.992 408.148 789.966 412.134 789.243 415.891C780.634 412.952 772.92 408.24 767.132 400.706C765.69 398.828 764.399 396.625 763.415 394.278ZM884.62 366.775C892.367 368.61 899.7 372.485 903.64 379.574C905.979 383.781 907.008 388.767 906.81 393.68C900.262 392.918 893.602 392.629 886.973 392.39C886.951 391.196 886.923 390.004 886.887 388.814L886.785 385.764C886.604 379.948 886.513 372.644 884.62 366.775ZM844.52 367.485L847.931 367.102C857.404 366.022 866.871 364.889 876.345 365.539C877.716 365.633 879.108 365.783 880.503 365.987C878.828 372.029 878.969 379.126 878.27 385.107C877.999 387.42 877.658 389.713 877.28 391.998L875.636 391.921V391.921C865.471 391.37 855.296 391.032 845.123 390.628C845.124 388.718 845.113 386.807 845.083 384.895L845.045 382.983C844.929 378.099 845.245 372.598 844.52 367.485ZM796.951 366.709C806.872 368.311 817.126 368.651 826.872 368.663C830.765 368.668 834.656 368.429 838.544 368.084C838.291 370.155 838.159 372.249 837.968 374.291C837.585 378.417 837.146 382.536 836.669 386.652L836.243 390.253V390.253C823.739 389.686 811.236 389.074 798.735 388.439L796.971 388.344V388.344L796.476 381.423C796.14 376.808 795.769 372.194 795.247 367.6L795.639 367.459V367.459C796.1 367.269 796.537 367.008 796.951 366.709ZM792.642 368.427C792.095 374.953 791.793 381.505 791.391 388.041L783.15 387.601C781.776 387.526 780.403 387.45 779.029 387.371C773.689 387.063 766.827 385.446 761.547 386.954C761.144 382.155 762.516 377.479 766.848 374.254C774.452 368.591 784.135 370.607 792.642 368.427ZM820.799 310.094C808.527 303.066 777.736 295.883 775.786 317.968C774.889 328.131 782.445 336.551 791.268 340.309L791.599 340.448C799.874 343.85 814.541 347.692 821.702 340.315C827.662 334.175 819.757 323.166 812.351 328.196C808.545 330.78 800.534 328.876 796.287 327.646L796.021 327.569C791.438 326.222 785.328 321.911 787.223 316.268C788.9 311.276 796.036 310.364 800.505 310.202C807.176 309.963 813.668 311.512 820.278 312.016C821.325 312.096 821.648 310.58 820.799 310.094ZM769.964 274.581C753.308 273.801 742.947 291.987 746.777 306.888C747.439 309.459 750.315 311.983 753.091 311.694L753.791 311.63C754.146 311.595 754.503 311.551 754.831 311.46C757.467 310.73 759.83 307.988 759.638 305.146L759.587 304.318C759.198 297.279 759.961 289.169 768.327 287.464C775.422 286.018 779.383 292.847 779.467 299.133C779.483 300.249 780.737 301.028 781.724 300.428C786.853 297.307 787.741 291.098 785.782 285.751C783.299 278.976 777.085 274.914 769.964 274.581ZM893.567 278.481C881.446 274.437 868.369 280.898 862.5 291.614C860.441 292.21 858.385 293.797 858.671 296.227C859.084 299.723 859.706 301.927 862.13 304.578C865.921 308.726 873.022 306.605 874.598 301.5L874.665 301.269C876.455 294.67 883.719 290.316 890.336 292.626C898.066 295.324 897.842 303.488 903.264 308.244C903.901 308.803 904.665 308.892 905.429 308.523C911.188 305.74 910.153 297.364 908.1 292.57C905.407 286.279 900.173 280.684 893.567 278.481ZM910.075 241.674C900.253 231.652 874.641 221.954 867.922 240.461C866.642 243.986 869.367 248.739 873.037 249.47C879.047 250.666 884.379 248.057 890.349 248.525C895.182 248.906 900.223 250.521 904.087 253.515C914.789 261.807 917.143 275.832 924.6 286.386C924.963 286.9 925.668 286.684 925.735 286.078C927.433 270.713 920.833 252.65 910.075 241.674ZM781.979 231.808C775.461 229.506 768.08 229.703 761.528 231.745C754.928 233.803 748.869 237.711 744.201 242.817C742.083 245.135 740.123 247.693 738.551 250.416C737.716 251.859 736.838 254.84 735.889 256.615C730.755 259.58 728.56 266.335 733.157 271.14L733.364 271.351L733.979 271.961C736.45 274.407 740.176 275.467 743.549 274.49C751.097 272.306 752.014 266.361 754.627 260.051C756.353 255.883 759.31 252.195 762.895 249.486C771.368 243.086 785.261 241.047 795.462 244.063C796.005 244.224 796.643 243.532 796.256 243.03C794.323 240.526 793.209 238.471 790.621 236.451C787.994 234.401 785.127 232.92 781.979 231.808Z" fill="black"></path>
  </g>
  <defs>
    <clipPath id="clip0_9_19249">
      <rect width="1645" height="2996" fill="white" transform="matrix(-1 0 0 1 1645 0)"></rect>
    </clipPath>
  </defs>
</svg>