<svg class="rellax" viewBox="0 0 1400 2000" fill="none" xmlns="http://www.w3.org/2000/svg">
  <path fill-rule="evenodd" clip-rule="evenodd" d="M367.845 792.92C356.023 799.555 346.211 804.087 336.966 807.183L323.37 811.735L336.157 818.223C344.842 822.63 353.101 828.25 361.405 835.407L367.814 840.932L370.907 833.056C374.969 822.71 376.946 810.941 376.782 798.076L376.652 787.978L367.845 792.92ZM935.742 826.336C924.678 846.324 911.322 866.002 898.405 885.032C869.897 927.032 840.418 970.463 831.341 1022.4C830.282 1028.86 829.827 1051.59 829.827 1051.59L838.277 1048.15C866.495 1036.64 896.434 1028.08 925.386 1019.81C936.577 1016.61 948.147 1013.3 959.488 1009.86C964.106 1008.62 968.699 1007.18 973.143 1005.78C983.924 1002.39 994.109 999.18 1004.82 998.634L1008.08 998.468L1009.71 995.64C1024.46 970.06 1013.4 945.677 1000.73 922.892C993.118 906.283 983.33 890.679 973.862 875.584C964.049 859.94 953.902 843.764 946.488 826.835L941.619 815.72L935.742 826.336ZM391.238 1038.23C408.01 1055.83 423.589 1073.71 437.543 1091.37L448.139 1086.5C443.017 1060.4 427.115 1042.02 398.093 1028.64L391.238 1038.23ZM952.324 1431.33C950.645 1431.33 949.07 1431.98 947.89 1433.16C946.693 1434.36 946.036 1435.98 946.041 1437.71L952.324 1437.69V1431.33ZM254.402 1866.38C244.548 1849.44 243.1 1822.86 257.868 1808.45C252.901 1777.32 262.659 1742.54 284.27 1717.76L284.32 1717.83C316.407 1669.7 318.765 1652.55 295.321 1598.75C253.423 1597.14 210.266 1596.66 169.357 1586.86L170.887 1577.7C169.373 1577.3 161.638 1575.27 159.977 1574.84C160.199 1576.54 161.352 1584.32 161.324 1585.87C159.413 1587.97 154.794 1589.91 153.935 1585.79C128.2 1475.61 105.168 1367.62 80.1421 1257.6C53.9501 1146.56 1.27608 968.964 130.212 907.769L127.55 896.392C120.43 896.394 117.569 888.622 114.305 877.643C99.7571 838.363 128.045 799.85 154.498 775.555C190.656 739.296 224.013 699.04 256.282 660.124C348.33 548.028 473.575 398.442 633.672 423.855L633.133 430.458C658.177 433.612 684.326 440.245 709.684 435.625C796.261 420.602 890.451 454.588 943.699 524.369L945.655 511.363C945.839 510.136 946.277 509.001 948.216 509.001C950.753 508.911 952.094 510.99 953.032 512.908C1044.94 549.296 1083.01 667.737 1112.38 748.919C1116.12 762.641 1115.07 766.701 1114.74 767.508L1109.41 770.691C1164.8 844.506 1195.23 933.291 1221.34 1017.48C1229.97 1039.92 1230.87 1055.47 1216.46 1069.04C1311.5 1126.25 1386.07 1215.4 1343.91 1317.04C1288.88 1415.94 1143.16 1478.69 1033.72 1535.49C990.254 1559.08 927.04 1571.64 887.047 1610.27C884.375 1614.22 880.541 1618.08 878.218 1617.76C859.656 1620.51 832.03 1504.37 836.229 1495.07C816.635 1502.09 794.838 1501.72 774.344 1505.38C776.18 1509.42 782.193 1514.89 777.694 1519.39C777.999 1533.03 775.905 1547.77 772.908 1561.68C797.503 1557.73 796.945 1570.65 773.282 1563.81C772.639 1569.84 770.998 1585.19 770.37 1591.02C777.433 1587.91 791.491 1585.72 796.414 1590.59C794.403 1597.07 776.983 1590.97 770.273 1592.89C766.348 1622.05 765.068 1650.71 762.314 1679.79C783.254 1699.77 815.962 1704.5 834.649 1726.11C850.482 1742.56 848.199 1770.16 829.624 1783.39C841.001 1796.76 831.896 1818.95 815.284 1822.57C792.653 1827.87 768.997 1820.55 746.683 1814.4C709.591 1802.16 670.744 1783.09 627.932 1756.09C610.995 1745.52 598.38 1728.91 592.386 1709.32C548.951 1575.21 537.344 1484.09 557.846 1438.35C569.546 1429.5 582.587 1434.96 593.39 1430.13C598.538 1427.82 603.178 1424.72 606.921 1413.73C550.57 1408.19 468.424 1418.49 423.253 1391.44L424.842 1388.05C420.671 1385.39 411.506 1374.23 408.019 1370.64C414.304 1446.38 419.356 1524.07 421.856 1599.54C430.142 1613.5 437.178 1627.95 444.902 1644.07C450.274 1649.35 459.673 1658.41 454.158 1664.41C454.157 1664.41 500.538 1773.2 514.712 1828.2C528.207 1828.77 533.678 1851.67 533.164 1866.88C531.112 1894.56 495.651 1897.49 464.564 1900.21C443.293 1902.44 421.422 1903.6 399.876 1903.6C360.947 1903.63 263.611 1900.95 254.402 1866.38Z" fill="#EDB98A" />
  <path fill-rule="evenodd" clip-rule="evenodd" d="M317.163 1643.04C343.164 1622.55 406.676 1614.63 433.593 1630.91C434.843 1635.19 438.147 1637.83 441.482 1638.11C444.781 1641.72 446.088 1647.16 450.493 1649.63C467.181 1704.86 508.691 1784.19 520 1841C518.009 1841.64 528.103 1845.89 531 1856C533.613 1865.12 529.096 1880.2 527 1881C480.027 1898.95 380.802 1904.03 327 1896C260 1886 249.975 1846.98 250 1847C246.593 1830.26 245.949 1832.04 258 1803C263.03 1790.88 256.455 1772.8 272 1741C281.245 1722.09 312.176 1668.96 312.176 1668.96C315.631 1660.73 318.747 1652.19 317.163 1643.04ZM700.992 1409.09L700.033 1410.72C697.191 1415.6 684.015 1451.29 689 1481C693.433 1507.43 714.805 1517.25 731.222 1521.06C750.523 1525.22 753.188 1516.16 771 1508C770.965 1508.84 785.562 1510.42 783 1521C779.026 1537.41 772.469 1583.5 767 1613C762.003 1639.96 757.616 1650.17 763 1670C768.02 1688.49 824.017 1713.58 836 1725C856.226 1744.28 826.423 1805.98 823.343 1810.53C808.728 1825.94 765.855 1813.5 746.376 1807.86L745.792 1807.69L744.643 1807.36C706.741 1794.19 662.919 1773.11 628.742 1752.24C612.72 1743.01 601.709 1719.54 596.493 1701.95C573.001 1618.24 542.52 1529.42 556.339 1441.86C558.404 1438.92 583.457 1427.64 606.746 1421.26C611.653 1419.91 616.481 1410.79 621 1410C650.937 1404.79 690.588 1409.05 700.992 1409.09Z" fill="white" />
  <path fill-rule="evenodd" clip-rule="evenodd" d="M627.727 418C629.176 418.139 630.509 418.294 631.844 418.461L633.267 418.639L632.636 419.927C615.693 493.48 618.98 544.326 639.471 592.243C663.003 647.267 702.265 683.908 749.18 696.766C794.541 709.198 844.229 691.375 885.462 654.489C920.767 622.905 950.696 506.356 950.696 506.356C956.906 509.091 978.886 519.234 984.632 522.713C1043.26 573.147 1087.47 673.991 1108.63 742.675C1108.76 743.086 1108.89 743.498 1109 743.904L1107.73 743.997C1097.93 744.758 1056.97 749.031 1012 776C990.982 788.606 951 832 951 832L944 821C944 821 974.107 765.3 965 771C949.038 780.991 843.988 951.906 828 1025C826.62 1031.31 828.142 1061.45 828.142 1061.45C828.235 1061.91 826.577 1090.19 819 1107C799.434 1150.41 755.599 1213.42 713.448 1237.17C669.97 1257.23 622.774 1235.04 584.881 1212.33L582.573 1210.94C582.426 1210.85 582.279 1210.76 582.137 1210.67C582.137 1210.67 574.84 1176.21 574 1162C573.24 1149.16 574.301 1136.8 574 1127C573.303 1104.29 571.501 1090.72 567.192 1083.77C565.237 1073.74 560.547 1046.85 531 1015C516.977 999.883 482.315 984.691 467.626 967.715C420.872 913.677 379.46 855.491 373.047 848.712L371.367 846.952L371.522 846.392C376.016 830.121 376.924 805.831 371.947 789.084L376.322 786.248C397.781 772.292 444.126 740.149 479.464 704.408C490.444 693.303 490.936 672.709 483.934 679.467C483.703 679.69 483.47 679.91 483.227 680.118L482.536 679.489C434.055 635.48 367 611 309.351 608.168C308.563 608.129 307.775 608.218 307 608.248L308.551 606.471C329.852 582.106 351.858 553.325 375.058 530.922C441.21 466.322 533.077 419.654 627.727 418Z" fill="#57B4EA" />
  <path fill-rule="evenodd" clip-rule="evenodd" d="M806.243 1489.66C790.933 1493.27 775.494 1496.27 760.094 1499.48C756.142 1501.22 736.27 1501.5 739.893 1507.99C739.874 1508.01 739.864 1508.03 739.844 1508.04C743.89 1511.16 749.367 1509.4 754.243 1509.8C716.368 1525.33 690.393 1493.34 697.364 1456.82C698.353 1450.3 699.634 1442.88 702.444 1436.92C703.931 1434.25 714.61 1413.67 716.493 1420.69C715.015 1421.58 719.198 1421.95 718.614 1418.76C848.675 1417.32 816.651 1357.46 828.993 1484.56C821.344 1485.14 813.704 1487.9 806.243 1489.66M774.634 1545.15C773.919 1548.34 773.129 1551.59 772.204 1554.73C746.76 1559.16 728.046 1572.08 768.334 1569.64C767.174 1574.4 766.084 1579.18 765.054 1583.98C760.069 1585.9 741.957 1591.98 742.883 1597.78C749.162 1599.19 756.015 1596.59 762.464 1596.86C758.274 1624.65 752.153 1653.07 752.712 1681.23C752.638 1690.51 766.787 1692.26 768.603 1683.06C785.736 1708.25 837.419 1718.08 832.515 1754.89C829.781 1762.41 826.204 1767.54 818.514 1767.81C813.056 1769.22 806.964 1775.67 810.103 1781.43L809.964 1781.48C810.557 1786.69 816.504 1788.57 820.404 1790.07C824.284 1793.09 824.424 1797.96 821.344 1802.51C806.28 1818.4 763.321 1802.57 744.644 1797.35C706.742 1784.17 670.92 1765.1 636.743 1744.22C620.722 1734.99 609.71 1719.52 604.494 1701.93C581.002 1618.23 550.521 1529.4 564.34 1441.84C570.326 1433.32 583.293 1434.87 591.733 1430.35C577.778 1481.89 600.907 1535.41 610.32 1586.22C629.746 1677.72 645.053 1750.69 745.766 1781.22C759.357 1784.07 788.654 1794.38 798.733 1782.95C801.944 1779.88 801.624 1774.74 798.733 1771.61C793.636 1764.79 785.204 1765.61 777.594 1764.83C757.883 1762.37 738.594 1756.38 721.014 1747.11C681.928 1727.79 654.763 1690.52 647.855 1647.56C636.128 1599.19 625.598 1550.43 611.894 1502.56C602.518 1470 587.203 1441.66 621.115 1417.68C644.063 1418.36 667.034 1418.99 689.993 1419.07C684.34 1428.58 678.086 1440.56 681.272 1451.83C667.272 1483.6 685.349 1525.94 720.223 1534.04C739.524 1538.2 759.562 1533.25 777.374 1525.08C777.094 1531.79 776.243 1538.28 774.634 1545.15M416.983 1389.55C416.884 1388.25 416.784 1386.94 416.683 1385.63C418.454 1387.58 420.483 1389.33 422.663 1390.91C420.784 1390.43 418.903 1389.94 416.983 1389.55M420.353 1604.08C422.191 1610.71 424.244 1617.28 426.473 1623.79C393.353 1614.22 349.192 1606.27 321.663 1632.26C317.733 1621.66 313.045 1611.61 306.473 1602.53C339.989 1598.72 373.757 1600.83 407.264 1597.41C409.738 1602.1 415.397 1604.88 420.353 1604.08M317.903 1680.57C318.023 1680.23 318.153 1679.89 318.273 1679.56C320.161 1679.33 322.036 1679.1 323.913 1678.85C321.903 1679.4 319.903 1679.97 317.903 1680.57M434.594 1646.89C435.844 1651.17 439.148 1653.81 442.483 1654.09C445.782 1657.7 447.089 1663.15 451.494 1665.61C468.182 1720.85 490.624 1774.51 501.933 1831.31C424.59 1856.37 352.097 1857.8 274.264 1832.54C276.134 1830.7 277.014 1828.23 277.054 1825.49C277.103 1825.54 277.163 1825.58 277.223 1825.63C266.697 1773.92 272.634 1757.65 299.514 1713.44C335.63 1711.89 371.854 1710.55 408.004 1711.63C416.492 1712.63 432.967 1705.64 425.544 1695.49C416.834 1685.93 403.143 1688.52 391.444 1689.14C364.145 1690.52 336.907 1694.54 310.893 1703.12C313.627 1697.31 314.476 1690.4 316.674 1684.23C341.892 1681.37 367.36 1680.7 392.654 1682.8C402.084 1683.69 413.194 1688.22 421.353 1681.64C435.929 1656.28 332.737 1670.18 320.874 1673.01C324.78 1663.84 328.946 1654.32 327.163 1644.02C353.166 1623.54 407.678 1630.61 434.594 1646.89M511.103 1849.29C513.183 1850.75 515.844 1850.68 518.094 1849.68C523.301 1862.29 519.687 1875.18 505.272 1878.14C479.005 1884.3 451.626 1885.45 424.764 1887.03C396.174 1888.15 367.483 1887.32 339.004 1884.61C293.302 1883.24 252.697 1870.38 254.563 1816.72C256.392 1823.89 257.586 1834.87 266.783 1835.32C338.556 1873.24 431.744 1876.85 505.804 1843.89C507.084 1845.93 508.773 1847.66 511.103 1849.29M168.514 1581.34C168.504 1581.19 168.504 1581.06 168.483 1580.91C169.255 1581.12 170.029 1581.34 170.813 1581.53C170.044 1581.46 169.284 1581.39 168.514 1581.34M372.124 796.154C372.265 807.245 370.739 818.486 366.663 828.864C358.554 821.874 349.794 815.734 340.214 810.874C351.342 807.147 361.893 801.895 372.124 796.154M141.153 897.374C142.652 894.727 135.981 897.96 134.943 898.094C139.29 894.6 138.404 887.174 133.364 885.184C109.461 843.494 138.457 805.635 169.105 777.934C221.41 726.182 263.983 665.902 312.614 610.834C373.964 621.071 433.224 647.358 478.993 689.704C432.119 732.963 383.225 778.43 324.235 804.287C318.751 801.627 311.458 802.353 309.634 808.304C302.865 809.537 296.116 811.261 289.364 812.364C289.023 812.414 289.073 812.914 289.364 812.994C296.001 815.282 302.841 816.805 309.933 816.353C378.155 840.129 403.675 913.577 452.212 961.547C491.841 996.238 548.681 1021.84 554.4 1080.86C563.944 1099.93 570.834 1119.85 568.303 1141.21C568.968 1157.9 563.145 1174.46 567.903 1190.64C557.896 1228.92 546.425 1268.74 517.764 1297.6C516.954 1297.4 516.114 1297.45 515.334 1297.83C517.393 1285.04 519.603 1272.27 521.784 1259.5C530.044 1242.61 535.323 1224.44 538.784 1206C540.191 1196.71 526.548 1194.85 525.973 1204.31C516.668 1237.49 505.393 1276.8 473.044 1296.09C478.929 1273.8 486.033 1251.77 495.834 1230.88C499.584 1223.93 503.124 1216.86 506.594 1209.77C510.334 1202.09 499.163 1195.34 495.014 1203C479.904 1231.81 465.654 1264.44 436.874 1281.68C445.959 1251.63 457.928 1222.19 469.272 1192.88C470.534 1189.87 467.913 1186.31 465.084 1185.5C461.634 1184.51 458.954 1186.72 457.704 1189.69C453.15 1200.26 449.694 1212.48 442.344 1221.63C439.388 1231.77 418.758 1247.44 429.244 1224.19C439.439 1194.29 446.361 1162.39 460.993 1134.49C465.017 1083.9 457.377 1052.25 408.622 1028.82C401.554 1025.28 392.784 1020.75 384.304 1019.23C360.603 995.643 335.294 973.724 308.073 953.834C252.917 912.137 169.063 874.889 105.823 921.414C115.973 911.384 127.754 903.094 141.153 897.374M381.694 537.234C447.217 473.285 532.574 422.303 626.614 422.284C625.773 422.564 625.624 423.584 626.124 424.244C554.778 724.661 897.327 841.446 959.563 511.824C1024.9 554.458 1074.45 665.446 1097.05 738.784C1038.48 743.327 985.772 780.327 951.643 826.624C948.702 821.619 948.065 815.678 956.005 817.134C957.82 815.395 949.518 816.387 948.823 817.804C964.617 784.082 980.865 749.173 990.082 712.373C990.353 711.444 989.044 710.924 988.544 711.724C974.694 733.794 960.134 755.384 946.624 777.664C900.915 867.156 809.677 945.788 813.554 1052.66C813.534 1052.67 813.523 1052.68 813.514 1052.69C815.285 1055.79 814.576 1060.09 817.273 1062.79C803.218 1125.03 768.172 1188.63 711.256 1220.68C668.257 1240.5 621.459 1217.53 584.344 1195.06C582.974 1181.92 581.596 1168.79 580.214 1155.65C586.973 1153.95 586.113 1141.59 586.313 1136.15C587.731 1113.25 581.813 1090.79 569.642 1071.16C564.028 1042.04 548.285 1016.15 525.523 997.244C510.323 984.254 493.433 973.464 477.954 960.844C436.855 927.453 414.836 877.841 378.504 840.074C382.882 824.229 383.807 808.368 379.124 792.074C405.092 775.31 546.601 682.967 520.336 650.656C516.534 645.004 508.284 646.004 506.114 652.514C503.375 661.36 499.311 669.535 492.584 676.024C445.008 632.861 381.701 604.225 316.743 606.094C337.544 582.314 359.034 559.103 381.694 537.234M632.254 427.674C672.844 447.854 721.794 433.894 765.094 435.664C831.686 438.301 896.299 471.061 937.573 523.433C921.415 594.814 882.89 675.993 804.513 692.374C726.832 706.339 658.177 639.75 639.635 568.524C627.2 522.822 626.942 474.501 632.254 427.674M1191.24 937.603C1197.2 953.704 1202.84 969.914 1208.32 986.184C1213.84 1002.76 1220.34 1019.21 1224.85 1036.09C1222.98 1044.17 1218.49 1050.62 1214 1057.4C1180.48 1107.86 1112.28 1103.14 1062.71 1127.63C1054.91 1131.33 1045.48 1135.94 1038.65 1142.44C1029.46 1145.87 1026.85 1156.8 1028.31 1165.68C1036.37 1210.63 1042.94 1255.12 1044.89 1300.7C1045.52 1313.28 1045.92 1326.42 1041.99 1338.43C1027.68 1326.92 1019.39 1260.52 1019 1240.9C1018.82 1235.97 1012.62 1235.65 1010.9 1239.8C989.847 1297.43 1000.81 1360.74 998.194 1420.84C968.376 1377.46 968.294 1322.73 966.675 1272.04C966.323 1263.93 953.924 1263.84 953.993 1272.04C952.204 1325.38 959.91 1383.39 954.094 1435.31C931.865 1380.54 925.626 1319.05 931.382 1260.38C920.767 1291.33 921.142 1333.77 924.674 1368.51C914.248 1369.67 921.219 1399.43 918.063 1407.95C859.278 1272.87 919.967 1193.69 984.577 1079.64C998.08 1046.58 1035.24 987.316 1024.6 953.644C1020.8 941.804 1014.06 931.194 1007.73 920.603C989.745 890.749 971.135 861.277 953.874 831.004C956.933 828.584 959.924 826.084 962.874 823.534C1002.38 788.268 1038.42 760.768 1094.08 756.794C1137.37 810.771 1167.54 872.89 1191.24 937.603M953.864 1435.85C953.493 1436.93 952.924 1434.8 954.034 1435.45C953.983 1435.58 953.913 1435.71 953.864 1435.85M1005.69 1347.21C1005.95 1325.09 1005.68 1302.75 1008.71 1280.83C1007.52 1302.95 1006.69 1325.09 1005.69 1347.21M984.674 994.634C935.498 1009.63 885.196 1021.57 837.353 1040.59C839.853 957.94 904.849 896.235 942.334 827.244C957.113 860.989 981.375 890.026 996.713 923.604C1008.49 944.756 1019.23 967.455 1005.85 990.643C998.853 990.393 991.054 993.004 984.674 994.634M443.044 1084.89C428.384 1066.58 413.044 1048.94 396.924 1032.09C421.013 1043.2 438.312 1058.75 443.594 1085.65C443.424 1085.4 443.243 1085.15 443.044 1084.89M710.254 1418.97C708.458 1420.31 707.74 1420.97 706.433 1421.98C707.699 1421.04 708.804 1419.44 710.254 1418.97M1351.07 1199.54C1328.1 1140.99 1279.5 1097.77 1226.94 1065.6C1240.14 1050.22 1234.64 1030.48 1228.31 1013.39C1201.96 928.597 1172.26 842.871 1119.47 770.474C1130.56 763.855 1107.47 712.864 1104.15 700.584C1075.84 631.692 1033.4 532.419 958.473 505.994C954.551 499.14 942.52 498.78 941.063 508.474C884.722 442.498 794.795 413.694 709.993 427.717C684.604 432.156 660.275 425.57 635.204 422.504C647.573 423.014 659.874 424.504 671.983 427.164C672.933 427.374 673.294 426.044 672.384 425.724C595.754 396.94 509.97 420.086 443.893 464.045C325.727 543.935 251.033 669.499 151.754 769.164C123.473 795.474 96.4342 832.919 108.705 873.444C112.052 883.872 115.121 900.396 128.893 900.393C-5.94285 967.129 49.7752 1141.84 75.6352 1256.93C100.513 1366.29 123.927 1476 149.443 1585.19C151.393 1593.31 160.134 1593.79 165.103 1589.65C206.505 1600.29 250.066 1601.03 292.614 1602.6C314.356 1654.42 310.448 1666.47 280.624 1712.57C281.084 1712.49 281.624 1712.43 282.284 1712.41C281.583 1712.45 280.795 1712.67 280.214 1713.14C280.337 1712.97 280.436 1712.88 280.624 1712.57C278.504 1712.94 278.514 1713.78 279.034 1713.95C279.393 1713.64 279.764 1713.36 280.163 1713.12C280.143 1713.18 280.143 1713.21 280.204 1713.15C279.893 1713.9 279.364 1714.06 279.034 1713.95C258.893 1739.06 248.539 1772.48 252.893 1804.52C238.147 1821.09 239.811 1848.79 250.472 1867.25C263.695 1892.97 293.045 1899.92 319.595 1902.24C352.183 1906.52 385.084 1908.26 417.944 1907.37C434.183 1906.93 450.393 1905.87 466.554 1904.17C494.216 1901.18 536.316 1900.95 540.483 1865.43C541.403 1852.22 535.793 1824.57 520.944 1821.16C506.983 1767.59 489.896 1713.12 458.403 1666.96C467.847 1658.87 458.239 1644.95 451.154 1638.43C444.38 1624.31 437.553 1610.21 429.643 1596.67C431.832 1588.53 426.385 1583.48 427.465 1575.41C427.718 1514.06 421.407 1452.92 417.153 1391.74C460.477 1422.16 546.153 1412.89 599.323 1417.05C591.082 1435.53 568.286 1417.27 554.143 1432.95C523.514 1499.08 565.802 1640.56 587.991 1709.07C594.327 1729.78 607.656 1747.67 626.074 1759.16C663.767 1782.93 703.87 1804.17 746.283 1818.14C769.272 1824.52 794.222 1832.07 818.044 1826.4C836.526 1821.92 848.609 1799.67 838.614 1782.58C857.219 1765.84 856.815 1738.01 840.562 1720.22C821.964 1698.34 790.864 1693.51 769.913 1675.28C772.345 1649 773.61 1622.81 776.933 1596.63C784.645 1596.25 792.35 1599.55 799.584 1595.97C813.397 1582.65 789.816 1577.12 778.653 1580.58C779.063 1576.76 779.464 1572.95 779.874 1569.13C804.326 1574.59 805.139 1550.91 781.683 1552.99C783.885 1541.83 785.078 1530.47 785.042 1519.19C787.403 1515.64 787.254 1511.31 785.313 1507.98C800.594 1505.66 816.9 1505.56 831.704 1501.1C832.025 1520.36 861.185 1658.52 892.754 1612.39C909.675 1594.48 932.751 1583.83 955.344 1574.64C982.973 1563.24 1010.44 1551.47 1037.57 1538.93C1118.25 1501.6 1196.3 1458.12 1268.34 1405.89C1341.04 1359.1 1387.66 1285.92 1351.07 1199.54" fill="black" />
  <path fill-rule="evenodd" clip-rule="evenodd" d="M836.801 58.7062C881.573 58.7062 935.29 80.4107 939.858 80.8448L939.981 80.8514C942.384 80.8514 951.773 88.0047 968.149 102.311L950.412 136.905L951.847 138.276C958.716 144.861 964.58 150.863 969.208 155.595C1007 194.229 1013.79 345.919 1004.89 398.818C995.98 451.717 979.484 503.48 902.685 503.48C825.887 503.48 740.447 457.303 727.285 442.922C718.511 433.336 708.655 428.743 697.718 429.144C697.268 428.577 696.822 428.011 696.38 427.447L694.771 427.219C679.633 425.027 668.787 422.076 662.233 418.368C649.429 411.124 635.357 373.045 635.357 364.657C635.357 356.352 614.344 295.94 613.924 289.547L613.918 289.37C613.918 284.025 586.467 259.458 586.467 251.656C586.467 243.854 580.934 244.327 586.467 216.833L588.074 208.756C593.963 179.484 605.487 131.013 649.429 109.95C697.718 86.8051 791.577 58.7062 836.801 58.7062Z" fill="#EDB98A" />
  <path fill-rule="evenodd" clip-rule="evenodd" d="M709.67 298.313C709.67 298.313 689.502 307.864 669.334 323.456C649.166 339.047 659.124 339.562 659.124 339.562C659.124 339.562 658.256 372.975 664.471 386.229C670.686 399.483 707.495 401.829 707.495 401.829L713.73 422.706L712.868 432.381C708.07 430.224 703.017 429.243 697.71 429.438C697.26 428.87 696.815 428.305 696.372 427.741L694.763 427.513C679.626 425.321 668.78 422.37 662.225 418.662C649.422 411.418 635.35 373.339 635.35 364.951C635.35 360.286 628.719 339.179 622.833 320.44C618.24 305.82 614.101 292.643 613.917 289.841L613.91 289.664C613.91 287.243 608.281 280.881 602.121 273.919C594.677 265.507 586.459 256.219 586.459 251.95C586.459 249.673 585.988 248.101 585.458 246.333C584.172 242.042 582.541 236.598 586.459 217.127L588.067 209.05C593.955 179.778 605.48 131.306 649.422 110.244C697.71 87.0989 791.57 59 836.794 59C872.061 59 912.879 72.4676 930.852 78.3977C935.696 79.9958 938.88 81.0465 939.85 81.1387L939.973 81.1453C942.376 81.1453 951.765 88.2985 968.141 102.605L963.981 110.72C909.899 112.299 820.964 117.124 782.143 131.857C724.419 153.764 709.67 298.313 709.67 298.313Z" fill="#57B4EA" />
  <path fill-rule="evenodd" clip-rule="evenodd" d="M641.976 108.863C666.059 83.3012 802.78 43.7632 871.952 52.1443L874.027 52.413C879.547 53.113 884.987 54.173 890.356 55.613C907.71 59.666 925.636 65.803 939.975 76.054C951.946 84.44 989.709 98.135 978.579 120.073C982.706 127.892 984.246 137.552 981.457 145.253C981.106 147.913 980.286 150.363 979.237 152.903C988.054 165.914 995.035 180.628 1000.69 194.623C1010.56 229.844 1016.71 266.498 1017.61 302.433C1020.6 370.705 1013.11 452.256 953.652 496.404C917.731 524.379 861.463 525.319 821.096 490.633C818.805 487.922 808.032 480.606 811.627 479.323C812.697 480.453 813.797 481.553 814.917 482.633C814.866 482.513 814.856 482.393 814.877 482.263L813.823 481.309C811.84 479.474 809.27 476.812 812.197 477.333C812.326 477.483 812.467 477.613 812.606 477.763C813.226 478.135 813.694 478.457 814.059 478.741L814.246 478.892L814.188 478.831C812.502 477.033 811.491 475.2 814.012 476.371L814.346 476.533C815.467 477.713 816.606 478.843 817.766 479.943C817.747 479.813 817.766 479.683 817.837 479.543L816.755 478.498C815.7 477.464 815.861 477.459 816.377 476.623C814.133 473.478 818.322 475.346 818.616 476.573C821.237 475.953 823.538 480.873 825.226 481.473C899.225 538.363 1006.61 487.884 1004.87 329.359L1004.85 326.257C1004.34 275.568 1000.07 223.469 979.106 177.583C977.067 173.163 974.786 168.863 972.277 164.703C970.547 161.583 968.697 158.543 966.707 155.583C961.136 155.133 955.636 154.113 950.217 152.533C948.356 152.063 946.516 151.543 944.677 150.933C917.797 152.399 891.516 153.994 864.561 155.506L856.141 156.03C833.307 157.498 809.692 159.85 791.266 173.973C773.186 186.831 773.104 212.186 757.627 226.303C735.557 241.282 735.396 254.789 731.146 276.863C731.461 293.503 742.999 317.68 721.826 324.683C725.398 329.776 720.419 327.329 720.027 325.543C719.987 325.553 719.947 325.563 719.917 325.563C723.1 331.48 718.421 327.754 718.007 325.853C717.757 325.783 717.507 325.603 717.257 325.353C720.464 330.537 715.28 326.907 715.587 325.963C709.39 316.438 696.636 314.959 687.646 317.483C687.536 317.823 687.137 317.853 686.887 317.673C648.66 325.957 658.523 405.093 697.697 397.443C699.374 397.101 699.334 397.906 699.667 397.983C698.762 395.607 701.313 396.574 701.286 397.073L701.441 397.065C701.564 397.055 701.514 397.041 701.606 397.073C700.731 392.214 705.655 399.254 705.266 399.543C705.417 399.453 705.587 399.403 705.737 399.383L705.567 398.922C704.75 396.745 704.82 397.65 704.826 396.403C704.212 394.862 704.167 395.536 704.311 394.532C706.469 392.86 707.106 397.932 707.826 398.303C706.592 396.583 707.573 395.178 708.737 396.112C717.56 414.67 728.957 432.107 743.686 445.843C745.297 447.113 746.927 448.363 748.616 449.543C754.881 455 764.491 458.509 770.356 463.343C770.356 463.423 770.317 463.523 770.257 463.623L770.391 463.744V463.744L770.527 463.873L772.567 464.853C773.167 465.363 773.707 465.933 774.186 466.563C774.697 467.153 775.146 467.803 775.527 468.493C775.717 469.333 775.297 469.683 774.497 469.323C774.146 469.203 773.797 469.063 773.447 468.933C773.467 468.963 773.476 468.983 773.497 469.003C773.612 469.177 774.388 470.977 773.493 470.684L773.387 470.643C772.896 470.463 772.407 470.263 771.927 470.073C772.497 470.783 773.016 471.553 773.476 472.203C773.967 472.713 774.266 473.313 774.387 473.993C774.366 474.373 774.157 474.533 773.777 474.483C773.197 474.293 772.627 474.093 772.056 473.883L772.218 474.193C772.622 474.986 773.195 476.317 772.177 475.873C771.306 475.603 770.467 475.293 769.627 474.953C769.556 475.093 769.417 475.143 769.137 475.013C766.467 474.063 763.887 472.903 761.417 471.533C759.247 469.953 757.056 468.403 754.877 466.833C752.826 465.603 750.846 464.233 748.957 462.693C736.311 454.525 725.24 444.149 716.457 432.593C701.768 445.314 672.399 433.161 654.232 423.203C638.163 414.303 631.847 397.847 630.214 380.105C626.819 356.219 607.299 348.043 608.657 295.633C608.627 295.643 608.596 295.643 608.556 295.643C607.846 295.433 607.157 295.153 606.507 294.793C605.837 294.473 605.207 294.093 604.616 293.633L603.886 292.623V292.623C603.507 292.413 603.167 292.193 602.907 291.973L602.772 292.147C602.345 292.662 602.632 291.887 602.657 291.733L601.389 290.008C598.382 285.903 595.083 281.297 592.396 277.613L592.311 277.763C592.25 277.876 592.218 277.957 592.247 277.993C585.852 268.805 579.838 257.707 578.167 246.963C576.194 238.687 576.965 230.159 578.686 222.493C586.065 195.648 610.237 134.9 641.976 108.863ZM815.524 480.116L815.123 479.759L815.475 480.201C815.66 480.429 815.849 480.634 816.157 480.843C816.137 480.773 816.137 480.703 816.146 480.623C815.942 480.467 815.733 480.297 815.524 480.116ZM871.646 65.633C824.738 61.6 778.601 71.934 733.839 84.443L730.751 85.3305C705.299 92.593 678.386 99.1282 656.877 114.673C626.826 137.69 611.308 174.306 597.766 208.113C585.941 233.231 591.986 261.554 609.806 279.093C611.66 261.664 614.821 244.745 619.761 227.962C620.792 225.34 620.012 224.481 622.234 224.139C625.59 269.367 609.061 302.783 641.771 356.385C655.964 381.677 639.534 400.183 679.614 413.492L680.698 413.906C689.049 417.057 698.167 419.544 706.346 417.783L705.613 416.591C704.866 415.364 704.639 414.768 705.726 414.243C705.697 414.183 705.657 414.123 705.616 414.053C704.737 412.393 703.887 410.713 703.076 409.013C702.747 409.123 702.417 409.203 702.076 409.293C702.297 409.703 702.326 410.113 701.707 410.253C699.503 411.009 697.24 411.312 694.924 411.17L694.427 411.133C691.81 410.973 690.161 410.496 688.686 410.053C688.197 409.973 687.707 409.893 687.226 409.793C682.481 408.741 677.458 406.065 674.207 403.413C637.149 382.365 640.979 310.716 686.657 303.943C687.594 258.831 709.051 182.723 744.661 139.736C776.849 100.195 864.723 83.057 925.859 89.1C926.75 89.395 927.641 89.693 928.532 89.994C937.964 90.832 946.953 95.034 956.392 96.986C949.615 91.907 941.927 88.524 934.008 85.649C918.23 75.998 900.142 70.776 882.667 67.093C879.047 66.203 875.377 65.713 871.646 65.633ZM684.566 340.183C687.022 338.849 686.741 340.137 687.306 339.763C704.972 338.322 724.021 353.789 733.896 366.683C733.116 367.493 731.006 365.093 730.636 364.713C730.586 364.763 730.526 364.803 730.466 364.823L730.741 365.211C734.744 370.955 726.809 364.196 726.066 362.803C725.936 362.873 725.806 362.913 725.656 362.883C726.285 363.5 728.206 365.109 728.536 366.253L729.045 366.677C733.848 370.789 733.449 373.883 727.997 368.043C728.126 368.313 728.176 368.563 728.086 368.763L728.274 368.888C730.955 370.762 733.16 375.984 727.556 370.623C728.139 374.539 722.003 366.97 721.806 367.023C711.188 358.688 695.555 350.582 682.236 349.493L681.778 349.44C679.334 349.126 678.178 348.401 679.036 346.803C676.026 346.087 676.731 344.605 678.156 344.653C676.033 343.257 677.944 341.922 679.176 342.443C678.329 340.098 681.726 341.66 682.036 341.333C683.799 338.614 684.274 340.882 684.566 340.183ZM647.536 194.833C656.021 191.725 681.084 201.029 679.079 213.351C677.885 216.18 673.951 217.801 671.186 216.204L667.577 213.78C661.297 209.574 655.633 205.886 648.89 202.218C645.22 200.397 643.64 196.531 647.536 194.833ZM695.811 176.522L692.534 174.389C674.85 162.816 649.851 145.279 694.186 163.423C699.239 165.59 705.953 166.872 708.71 171.684C713.041 180.553 701.643 181.149 695.811 176.522ZM697.798 124.593C696.379 119.208 714.036 125.527 719.176 127.193L719.959 127.488C724.959 129.351 730.691 131.08 733.681 135.395C737.185 141.357 730.093 142.592 725.7 139.899C716.693 134.013 706.818 129.572 697.798 124.593ZM742.699 99.5078C732.76 88.6544 759.359 99.0516 763.343 101.938L763.457 102.023C766.43 104.116 765.827 108.624 763.034 109.948C755.087 110.099 749.239 103.475 742.699 99.5078ZM787.925 87.6166C772.125 76.2616 792.938 81.6626 800.167 86.1126C805.094 90.4576 800.019 97.7926 787.925 87.6166Z" fill="black" />
  <path fill-rule="evenodd" clip-rule="evenodd" d="M956.132 426.723C952.642 425.581 949.214 424.252 945.77 422.971C928.161 414.126 906.89 412.522 888.423 419.971C879.359 423.627 870.907 430.196 861.812 434.501C859.652 435.307 857.474 436.039 855.272 436.653C853.922 436.183 852.572 435.683 851.232 435.183C841.585 431.547 832.511 427.062 823.701 422.128C822.761 420.805 821.786 419.519 820.738 418.284C827.113 417.379 833.355 415.875 839.002 414.323C856.342 409.573 872.682 401.833 889.962 396.873C906.052 392.243 923.512 389.713 939.672 395.463C947.342 398.193 954.092 402.973 961.552 406.193C965.412 407.853 970.042 409.483 974.552 409.723C971.642 416.693 967.962 423.203 962.932 428.623C960.632 428.133 958.352 427.443 956.132 426.723ZM993.653 372.131C992.109 373.414 985.737 377.554 983.67 380.022C983.136 379.819 982.605 379.611 982.077 379.397C981.168 378.281 979.829 377.791 978.464 377.821C968.935 373.389 960.452 367.126 952.882 359.273C947.502 353.703 941.992 347.873 934.802 344.643C926.332 340.823 918.002 342.583 909.102 343.163C899.632 343.793 890.282 341.103 880.822 342.393C873.902 343.343 867.422 346.273 861.822 350.403C850.392 358.833 842.512 370.673 832.852 380.883C821.892 392.463 808.412 399.863 793.422 403.643C793.242 403.523 793.052 403.403 792.862 403.293C781.812 393.293 771.832 382.003 763.002 369.973C754.382 358.223 731.652 305.333 726.162 300.693C723.882 298.763 721.382 297.933 718.992 298.003C714.662 298.103 710.662 301.113 708.872 305.853C705.832 313.913 707.352 324.333 707.592 332.763C707.892 343.083 708.572 353.393 709.652 363.663C710.722 373.813 712.142 383.933 713.912 393.983C714.802 399.063 715.792 404.133 716.882 409.183C717.222 410.773 717.652 412.193 718.172 413.513C718.702 416.003 719.272 418.483 719.882 420.943C723.862 437.053 730.142 453.183 742.132 465.073C754.612 477.463 771.572 485.693 787.322 493.053C802.322 500.063 818.042 506.293 834.172 511.173C848.182 517.523 863.182 522.543 878.242 525.183C894.822 528.093 912.252 528.273 928.262 522.513C936.132 519.683 943.572 515.733 950.322 510.813C959.892 505.843 968.502 499.013 975.552 489.973C988.179 473.772 994.206 454.111 996.843 433.838C997.518 428.649 1000.06 408.762 1000.26 405.665C1000.9 395.666 1001.54 385.667 1002.19 375.667C1002.49 370.948 996.701 369.601 993.653 372.131Z" fill="black" />
  <path fill-rule="evenodd" clip-rule="evenodd" d="M876.15 366.691C881.744 356.861 893.668 380.941 894.935 385.082C896.057 388.75 896.797 392.507 897.174 396.308C901.511 397.347 906.014 397.349 910.458 396.439C917.063 395.085 921.1 391.292 926.84 388.035C930.805 385.785 935.802 388.424 937.864 392.156C940.289 396.549 938.744 401.109 935.554 404.384C929.505 410.595 917.604 412.022 909.708 410.372C905.184 409.428 901.037 407.616 897.376 404.982C897.352 405.473 897.335 405.965 897.299 406.456L897.229 407.307C896.623 414.195 894.85 422.856 889.842 427.338C881.628 434.691 871.49 420.551 879.472 413.207L879.719 412.987C884.68 408.705 885.763 397.215 885.495 390.887C885.32 386.757 884.616 382.574 883.395 378.64L883.144 377.857C882.777 376.745 878.77 366.205 877.322 367.547L877.253 367.623C876.656 368.384 875.691 367.497 876.15 366.691ZM920.814 311.222C928.366 316.125 939.872 327.559 931.748 339.715C922.186 350.433 908.418 338.144 901.634 332.586C895.343 328.278 888.275 339.357 894.112 344.386C943.136 383.159 963.031 312.504 924.634 305.456C920.406 304.68 918.836 309.705 920.814 311.222ZM840.179 265.899C847.559 264.5 855.119 266.461 861.226 271.073L861.688 271.429C867.572 276.026 874.155 284.097 870.779 292.02C869.424 295.201 865.366 295.7 862.791 294.258C858.504 291.856 857.727 285.948 853.902 282.678C850.765 279.998 846.541 278.372 842.501 278.764C833.01 279.685 827.172 289.685 824.224 298.302C823.847 299.405 822.332 299.833 821.74 298.649C814.789 284.771 827.093 268.379 840.179 265.899ZM958.389 260.661C972.526 259.417 989.073 275.073 985.351 291.014C983.566 298.662 972.945 298.443 971.057 291.014C970.018 286.925 970.122 283.308 967.367 279.913C965.093 277.11 961.862 275.482 958.389 275.732C954.561 276.008 951.03 278.051 948.347 280.924C945.924 283.518 944.475 287.313 941.965 289.609C941.347 290.173 940.52 290.209 939.91 289.609C935.59 285.354 938.183 276.496 940.922 272.054C944.842 265.698 951.225 261.292 958.389 260.661ZM813.258 237.627C822.327 229.051 838.806 220.769 851.035 224.99C858.066 227.416 861.131 239.518 853.282 243.354C844.193 247.796 833.714 245.988 824.463 250.592C820.578 252.527 816.924 254.945 814.219 258.49C812.088 261.285 809.92 264.962 806.838 266.573C806.028 266.997 804.931 267.007 804.282 266.221C797.526 258.057 807.359 243.204 813.258 237.627ZM942.802 224.564C948.407 222.883 954.625 222.918 960.319 223.973C966.011 225.029 971.79 227.549 976.437 231.224L976.976 231.655C982.049 235.739 988.103 241.68 987.779 248.915C987.508 254.956 981.559 259.042 976.423 255.876C972.236 253.294 970.266 248.121 966.721 244.677C963.796 241.834 960.36 239.593 956.694 238.023C952.622 236.278 948.543 235.461 944.173 235.383C940.808 235.323 937.423 236.503 934.121 236.88C934.393 237.476 931.783 237.198 930.287 236.669C929.179 236.165 929.173 234.668 929.557 233.697C931.462 228.887 938.393 225.884 942.802 224.564Z" fill="black" />
</svg>